<mxfile host="app.diagrams.net" agent="Mozilla/5.0 (Macintosh; Intel Mac OS X 10_15_7) AppleWebKit/605.1.15 (KHTML, like Gecko) Version/16.5 Safari/605.1.15" version="25.0.3">
  <diagram name="Страница — 2" id="AXcevn2bwhXFgxY4dPaq">
    <mxGraphModel dx="838" dy="620" grid="1" gridSize="10" guides="1" tooltips="1" connect="1" arrows="1" fold="1" page="1" pageScale="1" pageWidth="827" pageHeight="1169" math="0" shadow="0">
      <root>
        <mxCell id="0" />
        <mxCell id="1" parent="0" />
        <mxCell id="zNFJ4cj6PXObmbsLO68b-1" value="GET /widgets - получение списка виджетов на экране пользователя" style="text;html=1;align=left;verticalAlign=middle;whiteSpace=wrap;rounded=0;fontStyle=1;fontSize=16;" vertex="1" parent="1">
          <mxGeometry x="37" y="100" width="623" height="30" as="geometry" />
        </mxCell>
        <mxCell id="zNFJ4cj6PXObmbsLO68b-2" value="Response" style="shape=table;startSize=30;container=1;collapsible=0;childLayout=tableLayout;strokeColor=default;fontSize=13;" vertex="1" parent="1">
          <mxGeometry x="37" y="180" width="739" height="738" as="geometry" />
        </mxCell>
        <mxCell id="zNFJ4cj6PXObmbsLO68b-3" style="shape=tableRow;horizontal=0;startSize=0;swimlaneHead=0;swimlaneBody=0;strokeColor=inherit;top=0;left=0;bottom=0;right=0;collapsible=0;dropTarget=0;fillColor=none;points=[[0,0.5],[1,0.5]];portConstraint=eastwest;fontSize=16;" vertex="1" parent="zNFJ4cj6PXObmbsLO68b-2">
          <mxGeometry y="30" width="739" height="40" as="geometry" />
        </mxCell>
        <mxCell id="zNFJ4cj6PXObmbsLO68b-4" value="Название параметра" style="shape=partialRectangle;html=1;whiteSpace=wrap;connectable=0;strokeColor=inherit;overflow=hidden;fillColor=none;top=0;left=0;bottom=0;right=0;pointerEvents=1;fontSize=11;rowspan=1;colspan=4;" vertex="1" parent="zNFJ4cj6PXObmbsLO68b-3">
          <mxGeometry width="338" height="40" as="geometry">
            <mxRectangle width="33" height="40" as="alternateBounds" />
          </mxGeometry>
        </mxCell>
        <mxCell id="zNFJ4cj6PXObmbsLO68b-5" value="Название параметра" style="shape=partialRectangle;html=1;whiteSpace=wrap;connectable=0;strokeColor=inherit;overflow=hidden;fillColor=none;top=0;left=0;bottom=0;right=0;pointerEvents=1;fontSize=11;" vertex="1" visible="0" parent="zNFJ4cj6PXObmbsLO68b-3">
          <mxGeometry x="33" width="30" height="40" as="geometry">
            <mxRectangle width="30" height="40" as="alternateBounds" />
          </mxGeometry>
        </mxCell>
        <mxCell id="zNFJ4cj6PXObmbsLO68b-6" style="shape=partialRectangle;html=1;whiteSpace=wrap;connectable=0;strokeColor=inherit;overflow=hidden;fillColor=none;top=0;left=0;bottom=0;right=0;pointerEvents=1;fontSize=11;" vertex="1" visible="0" parent="zNFJ4cj6PXObmbsLO68b-3">
          <mxGeometry x="63" width="30" height="40" as="geometry">
            <mxRectangle width="30" height="40" as="alternateBounds" />
          </mxGeometry>
        </mxCell>
        <mxCell id="zNFJ4cj6PXObmbsLO68b-7" value="Название параметра" style="shape=partialRectangle;html=1;whiteSpace=wrap;connectable=0;strokeColor=inherit;overflow=hidden;fillColor=none;top=0;left=0;bottom=0;right=0;pointerEvents=1;fontSize=11;" vertex="1" visible="0" parent="zNFJ4cj6PXObmbsLO68b-3">
          <mxGeometry x="93" width="245" height="40" as="geometry">
            <mxRectangle width="245" height="40" as="alternateBounds" />
          </mxGeometry>
        </mxCell>
        <mxCell id="zNFJ4cj6PXObmbsLO68b-8" value="Тип параметра" style="shape=partialRectangle;html=1;whiteSpace=wrap;connectable=0;strokeColor=inherit;overflow=hidden;fillColor=none;top=0;left=0;bottom=0;right=0;pointerEvents=1;fontSize=11;" vertex="1" parent="zNFJ4cj6PXObmbsLO68b-3">
          <mxGeometry x="338" width="95" height="40" as="geometry">
            <mxRectangle width="95" height="40" as="alternateBounds" />
          </mxGeometry>
        </mxCell>
        <mxCell id="zNFJ4cj6PXObmbsLO68b-9" value="Тип данных" style="shape=partialRectangle;html=1;whiteSpace=wrap;connectable=0;strokeColor=inherit;overflow=hidden;fillColor=none;top=0;left=0;bottom=0;right=0;pointerEvents=1;fontSize=11;" vertex="1" parent="zNFJ4cj6PXObmbsLO68b-3">
          <mxGeometry x="433" width="101" height="40" as="geometry">
            <mxRectangle width="101" height="40" as="alternateBounds" />
          </mxGeometry>
        </mxCell>
        <mxCell id="zNFJ4cj6PXObmbsLO68b-10" value="Описание&amp;nbsp;" style="shape=partialRectangle;html=1;whiteSpace=wrap;connectable=0;strokeColor=inherit;overflow=hidden;fillColor=none;top=0;left=0;bottom=0;right=0;pointerEvents=1;fontSize=11;" vertex="1" parent="zNFJ4cj6PXObmbsLO68b-3">
          <mxGeometry x="534" width="112" height="40" as="geometry">
            <mxRectangle width="112" height="40" as="alternateBounds" />
          </mxGeometry>
        </mxCell>
        <mxCell id="zNFJ4cj6PXObmbsLO68b-11" value="Обязательность параметра" style="shape=partialRectangle;html=1;whiteSpace=wrap;connectable=0;strokeColor=inherit;overflow=hidden;fillColor=none;top=0;left=0;bottom=0;right=0;pointerEvents=1;fontSize=11;" vertex="1" parent="zNFJ4cj6PXObmbsLO68b-3">
          <mxGeometry x="646" width="93" height="40" as="geometry">
            <mxRectangle width="93" height="40" as="alternateBounds" />
          </mxGeometry>
        </mxCell>
        <mxCell id="zNFJ4cj6PXObmbsLO68b-12" value="" style="shape=tableRow;horizontal=0;startSize=0;swimlaneHead=0;swimlaneBody=0;strokeColor=inherit;top=0;left=0;bottom=0;right=0;collapsible=0;dropTarget=0;fillColor=none;points=[[0,0.5],[1,0.5]];portConstraint=eastwest;fontSize=16;" vertex="1" parent="zNFJ4cj6PXObmbsLO68b-2">
          <mxGeometry y="70" width="739" height="40" as="geometry" />
        </mxCell>
        <mxCell id="zNFJ4cj6PXObmbsLO68b-13" value="widgets" style="shape=partialRectangle;html=1;whiteSpace=wrap;connectable=0;strokeColor=inherit;overflow=hidden;fillColor=none;top=0;left=0;bottom=0;right=0;pointerEvents=1;fontSize=11;rowspan=1;colspan=4;" vertex="1" parent="zNFJ4cj6PXObmbsLO68b-12">
          <mxGeometry width="338" height="40" as="geometry">
            <mxRectangle width="33" height="40" as="alternateBounds" />
          </mxGeometry>
        </mxCell>
        <mxCell id="zNFJ4cj6PXObmbsLO68b-14" value="Widgets" style="shape=partialRectangle;html=1;whiteSpace=wrap;connectable=0;strokeColor=inherit;overflow=hidden;fillColor=none;top=0;left=0;bottom=0;right=0;pointerEvents=1;fontSize=11;" vertex="1" visible="0" parent="zNFJ4cj6PXObmbsLO68b-12">
          <mxGeometry x="33" width="30" height="40" as="geometry">
            <mxRectangle width="30" height="40" as="alternateBounds" />
          </mxGeometry>
        </mxCell>
        <mxCell id="zNFJ4cj6PXObmbsLO68b-15" style="shape=partialRectangle;html=1;whiteSpace=wrap;connectable=0;strokeColor=inherit;overflow=hidden;fillColor=none;top=0;left=0;bottom=0;right=0;pointerEvents=1;fontSize=11;" vertex="1" visible="0" parent="zNFJ4cj6PXObmbsLO68b-12">
          <mxGeometry x="63" width="30" height="40" as="geometry">
            <mxRectangle width="30" height="40" as="alternateBounds" />
          </mxGeometry>
        </mxCell>
        <mxCell id="zNFJ4cj6PXObmbsLO68b-16" value="Widgets" style="shape=partialRectangle;html=1;whiteSpace=wrap;connectable=0;strokeColor=inherit;overflow=hidden;fillColor=none;top=0;left=0;bottom=0;right=0;pointerEvents=1;fontSize=11;" vertex="1" visible="0" parent="zNFJ4cj6PXObmbsLO68b-12">
          <mxGeometry x="93" width="245" height="40" as="geometry">
            <mxRectangle width="245" height="40" as="alternateBounds" />
          </mxGeometry>
        </mxCell>
        <mxCell id="zNFJ4cj6PXObmbsLO68b-17" value="Body" style="shape=partialRectangle;html=1;whiteSpace=wrap;connectable=0;strokeColor=inherit;overflow=hidden;fillColor=none;top=0;left=0;bottom=0;right=0;pointerEvents=1;fontSize=11;" vertex="1" parent="zNFJ4cj6PXObmbsLO68b-12">
          <mxGeometry x="338" width="95" height="40" as="geometry">
            <mxRectangle width="95" height="40" as="alternateBounds" />
          </mxGeometry>
        </mxCell>
        <mxCell id="zNFJ4cj6PXObmbsLO68b-18" value="array" style="shape=partialRectangle;html=1;whiteSpace=wrap;connectable=0;strokeColor=inherit;overflow=hidden;fillColor=none;top=0;left=0;bottom=0;right=0;pointerEvents=1;fontSize=11;" vertex="1" parent="zNFJ4cj6PXObmbsLO68b-12">
          <mxGeometry x="433" width="101" height="40" as="geometry">
            <mxRectangle width="101" height="40" as="alternateBounds" />
          </mxGeometry>
        </mxCell>
        <mxCell id="zNFJ4cj6PXObmbsLO68b-19" value="Массив виджетов выбранных пользователем" style="shape=partialRectangle;html=1;whiteSpace=wrap;connectable=0;strokeColor=inherit;overflow=hidden;fillColor=none;top=0;left=0;bottom=0;right=0;pointerEvents=1;fontSize=11;" vertex="1" parent="zNFJ4cj6PXObmbsLO68b-12">
          <mxGeometry x="534" width="112" height="40" as="geometry">
            <mxRectangle width="112" height="40" as="alternateBounds" />
          </mxGeometry>
        </mxCell>
        <mxCell id="zNFJ4cj6PXObmbsLO68b-20" value="Да" style="shape=partialRectangle;html=1;whiteSpace=wrap;connectable=0;strokeColor=inherit;overflow=hidden;fillColor=none;top=0;left=0;bottom=0;right=0;pointerEvents=1;fontSize=11;" vertex="1" parent="zNFJ4cj6PXObmbsLO68b-12">
          <mxGeometry x="646" width="93" height="40" as="geometry">
            <mxRectangle width="93" height="40" as="alternateBounds" />
          </mxGeometry>
        </mxCell>
        <mxCell id="zNFJ4cj6PXObmbsLO68b-21" value="" style="shape=tableRow;horizontal=0;startSize=0;swimlaneHead=0;swimlaneBody=0;strokeColor=inherit;top=0;left=0;bottom=0;right=0;collapsible=0;dropTarget=0;fillColor=none;points=[[0,0.5],[1,0.5]];portConstraint=eastwest;fontSize=16;" vertex="1" parent="zNFJ4cj6PXObmbsLO68b-2">
          <mxGeometry y="110" width="739" height="40" as="geometry" />
        </mxCell>
        <mxCell id="zNFJ4cj6PXObmbsLO68b-22" style="shape=partialRectangle;html=1;whiteSpace=wrap;connectable=0;strokeColor=inherit;overflow=hidden;fillColor=none;top=0;left=0;bottom=0;right=0;pointerEvents=1;fontSize=11;" vertex="1" parent="zNFJ4cj6PXObmbsLO68b-21">
          <mxGeometry width="33" height="40" as="geometry">
            <mxRectangle width="33" height="40" as="alternateBounds" />
          </mxGeometry>
        </mxCell>
        <mxCell id="zNFJ4cj6PXObmbsLO68b-23" value="widget" style="shape=partialRectangle;html=1;whiteSpace=wrap;connectable=0;strokeColor=inherit;overflow=hidden;fillColor=none;top=0;left=0;bottom=0;right=0;pointerEvents=1;fontSize=11;rowspan=1;colspan=3;" vertex="1" parent="zNFJ4cj6PXObmbsLO68b-21">
          <mxGeometry x="33" width="305" height="40" as="geometry">
            <mxRectangle width="30" height="40" as="alternateBounds" />
          </mxGeometry>
        </mxCell>
        <mxCell id="zNFJ4cj6PXObmbsLO68b-24" value="Widget" style="shape=partialRectangle;html=1;whiteSpace=wrap;connectable=0;strokeColor=inherit;overflow=hidden;fillColor=none;top=0;left=0;bottom=0;right=0;pointerEvents=1;fontSize=11;" vertex="1" visible="0" parent="zNFJ4cj6PXObmbsLO68b-21">
          <mxGeometry x="63" width="30" height="40" as="geometry">
            <mxRectangle width="30" height="40" as="alternateBounds" />
          </mxGeometry>
        </mxCell>
        <mxCell id="zNFJ4cj6PXObmbsLO68b-25" value="Wi" style="shape=partialRectangle;html=1;whiteSpace=wrap;connectable=0;strokeColor=inherit;overflow=hidden;fillColor=none;top=0;left=0;bottom=0;right=0;pointerEvents=1;fontSize=11;" vertex="1" visible="0" parent="zNFJ4cj6PXObmbsLO68b-21">
          <mxGeometry x="93" width="245" height="40" as="geometry">
            <mxRectangle width="245" height="40" as="alternateBounds" />
          </mxGeometry>
        </mxCell>
        <mxCell id="zNFJ4cj6PXObmbsLO68b-26" value="Body" style="shape=partialRectangle;html=1;whiteSpace=wrap;connectable=0;strokeColor=inherit;overflow=hidden;fillColor=none;top=0;left=0;bottom=0;right=0;pointerEvents=1;fontSize=11;" vertex="1" parent="zNFJ4cj6PXObmbsLO68b-21">
          <mxGeometry x="338" width="95" height="40" as="geometry">
            <mxRectangle width="95" height="40" as="alternateBounds" />
          </mxGeometry>
        </mxCell>
        <mxCell id="zNFJ4cj6PXObmbsLO68b-27" value="Object" style="shape=partialRectangle;html=1;whiteSpace=wrap;connectable=0;strokeColor=inherit;overflow=hidden;fillColor=none;top=0;left=0;bottom=0;right=0;pointerEvents=1;fontSize=11;" vertex="1" parent="zNFJ4cj6PXObmbsLO68b-21">
          <mxGeometry x="433" width="101" height="40" as="geometry">
            <mxRectangle width="101" height="40" as="alternateBounds" />
          </mxGeometry>
        </mxCell>
        <mxCell id="zNFJ4cj6PXObmbsLO68b-28" value="Объект виджета" style="shape=partialRectangle;html=1;whiteSpace=wrap;connectable=0;strokeColor=inherit;overflow=hidden;fillColor=none;top=0;left=0;bottom=0;right=0;pointerEvents=1;fontSize=11;" vertex="1" parent="zNFJ4cj6PXObmbsLO68b-21">
          <mxGeometry x="534" width="112" height="40" as="geometry">
            <mxRectangle width="112" height="40" as="alternateBounds" />
          </mxGeometry>
        </mxCell>
        <mxCell id="zNFJ4cj6PXObmbsLO68b-29" value="нет" style="shape=partialRectangle;html=1;whiteSpace=wrap;connectable=0;strokeColor=inherit;overflow=hidden;fillColor=none;top=0;left=0;bottom=0;right=0;pointerEvents=1;fontSize=11;" vertex="1" parent="zNFJ4cj6PXObmbsLO68b-21">
          <mxGeometry x="646" width="93" height="40" as="geometry">
            <mxRectangle width="93" height="40" as="alternateBounds" />
          </mxGeometry>
        </mxCell>
        <mxCell id="zNFJ4cj6PXObmbsLO68b-30" value="" style="shape=tableRow;horizontal=0;startSize=0;swimlaneHead=0;swimlaneBody=0;strokeColor=inherit;top=0;left=0;bottom=0;right=0;collapsible=0;dropTarget=0;fillColor=none;points=[[0,0.5],[1,0.5]];portConstraint=eastwest;fontSize=16;" vertex="1" parent="zNFJ4cj6PXObmbsLO68b-2">
          <mxGeometry y="150" width="739" height="40" as="geometry" />
        </mxCell>
        <mxCell id="zNFJ4cj6PXObmbsLO68b-31" style="shape=partialRectangle;html=1;whiteSpace=wrap;connectable=0;strokeColor=inherit;overflow=hidden;fillColor=none;top=0;left=0;bottom=0;right=0;pointerEvents=1;fontSize=11;" vertex="1" parent="zNFJ4cj6PXObmbsLO68b-30">
          <mxGeometry width="33" height="40" as="geometry">
            <mxRectangle width="33" height="40" as="alternateBounds" />
          </mxGeometry>
        </mxCell>
        <mxCell id="zNFJ4cj6PXObmbsLO68b-32" style="shape=partialRectangle;html=1;whiteSpace=wrap;connectable=0;strokeColor=inherit;overflow=hidden;fillColor=none;top=0;left=0;bottom=0;right=0;pointerEvents=1;fontSize=11;" vertex="1" parent="zNFJ4cj6PXObmbsLO68b-30">
          <mxGeometry x="33" width="30" height="40" as="geometry">
            <mxRectangle width="30" height="40" as="alternateBounds" />
          </mxGeometry>
        </mxCell>
        <mxCell id="zNFJ4cj6PXObmbsLO68b-33" value="widgetID" style="shape=partialRectangle;html=1;whiteSpace=wrap;connectable=0;strokeColor=inherit;overflow=hidden;fillColor=none;top=0;left=0;bottom=0;right=0;pointerEvents=1;fontSize=11;rowspan=1;colspan=2;" vertex="1" parent="zNFJ4cj6PXObmbsLO68b-30">
          <mxGeometry x="63" width="275" height="40" as="geometry">
            <mxRectangle width="30" height="40" as="alternateBounds" />
          </mxGeometry>
        </mxCell>
        <mxCell id="zNFJ4cj6PXObmbsLO68b-34" value="WidgetID" style="shape=partialRectangle;html=1;whiteSpace=wrap;connectable=0;strokeColor=inherit;overflow=hidden;fillColor=none;top=0;left=0;bottom=0;right=0;pointerEvents=1;fontSize=11;" vertex="1" visible="0" parent="zNFJ4cj6PXObmbsLO68b-30">
          <mxGeometry x="93" width="245" height="40" as="geometry">
            <mxRectangle width="245" height="40" as="alternateBounds" />
          </mxGeometry>
        </mxCell>
        <mxCell id="zNFJ4cj6PXObmbsLO68b-35" value="&lt;span style=&quot;caret-color: rgb(0, 0, 0); color: rgb(0, 0, 0); font-family: Helvetica; font-size: 11px; font-style: normal; font-variant-caps: normal; font-weight: 400; letter-spacing: normal; orphans: auto; text-align: center; text-indent: 0px; text-transform: none; white-space: normal; widows: auto; word-spacing: 0px; -webkit-text-stroke-width: 0px; background-color: rgb(251, 251, 251); text-decoration: none; display: inline !important; float: none;&quot;&gt;Body&lt;/span&gt;" style="shape=partialRectangle;html=1;whiteSpace=wrap;connectable=0;strokeColor=inherit;overflow=hidden;fillColor=none;top=0;left=0;bottom=0;right=0;pointerEvents=1;fontSize=11;" vertex="1" parent="zNFJ4cj6PXObmbsLO68b-30">
          <mxGeometry x="338" width="95" height="40" as="geometry">
            <mxRectangle width="95" height="40" as="alternateBounds" />
          </mxGeometry>
        </mxCell>
        <mxCell id="zNFJ4cj6PXObmbsLO68b-36" value="Int" style="shape=partialRectangle;html=1;whiteSpace=wrap;connectable=0;strokeColor=inherit;overflow=hidden;fillColor=none;top=0;left=0;bottom=0;right=0;pointerEvents=1;fontSize=11;" vertex="1" parent="zNFJ4cj6PXObmbsLO68b-30">
          <mxGeometry x="433" width="101" height="40" as="geometry">
            <mxRectangle width="101" height="40" as="alternateBounds" />
          </mxGeometry>
        </mxCell>
        <mxCell id="zNFJ4cj6PXObmbsLO68b-37" value="Идентификатор виджета" style="shape=partialRectangle;html=1;whiteSpace=wrap;connectable=0;strokeColor=inherit;overflow=hidden;fillColor=none;top=0;left=0;bottom=0;right=0;pointerEvents=1;fontSize=11;" vertex="1" parent="zNFJ4cj6PXObmbsLO68b-30">
          <mxGeometry x="534" width="112" height="40" as="geometry">
            <mxRectangle width="112" height="40" as="alternateBounds" />
          </mxGeometry>
        </mxCell>
        <mxCell id="zNFJ4cj6PXObmbsLO68b-38" value="Да" style="shape=partialRectangle;html=1;whiteSpace=wrap;connectable=0;strokeColor=inherit;overflow=hidden;fillColor=none;top=0;left=0;bottom=0;right=0;pointerEvents=1;fontSize=11;" vertex="1" parent="zNFJ4cj6PXObmbsLO68b-30">
          <mxGeometry x="646" width="93" height="40" as="geometry">
            <mxRectangle width="93" height="40" as="alternateBounds" />
          </mxGeometry>
        </mxCell>
        <mxCell id="zNFJ4cj6PXObmbsLO68b-39" style="shape=tableRow;horizontal=0;startSize=0;swimlaneHead=0;swimlaneBody=0;strokeColor=inherit;top=0;left=0;bottom=0;right=0;collapsible=0;dropTarget=0;fillColor=none;points=[[0,0.5],[1,0.5]];portConstraint=eastwest;fontSize=16;" vertex="1" parent="zNFJ4cj6PXObmbsLO68b-2">
          <mxGeometry y="190" width="739" height="40" as="geometry" />
        </mxCell>
        <mxCell id="zNFJ4cj6PXObmbsLO68b-40" style="shape=partialRectangle;html=1;whiteSpace=wrap;connectable=0;strokeColor=inherit;overflow=hidden;fillColor=none;top=0;left=0;bottom=0;right=0;pointerEvents=1;fontSize=11;" vertex="1" parent="zNFJ4cj6PXObmbsLO68b-39">
          <mxGeometry width="33" height="40" as="geometry">
            <mxRectangle width="33" height="40" as="alternateBounds" />
          </mxGeometry>
        </mxCell>
        <mxCell id="zNFJ4cj6PXObmbsLO68b-41" style="shape=partialRectangle;html=1;whiteSpace=wrap;connectable=0;strokeColor=inherit;overflow=hidden;fillColor=none;top=0;left=0;bottom=0;right=0;pointerEvents=1;fontSize=11;" vertex="1" parent="zNFJ4cj6PXObmbsLO68b-39">
          <mxGeometry x="33" width="30" height="40" as="geometry">
            <mxRectangle width="30" height="40" as="alternateBounds" />
          </mxGeometry>
        </mxCell>
        <mxCell id="zNFJ4cj6PXObmbsLO68b-42" value="widgetType" style="shape=partialRectangle;html=1;whiteSpace=wrap;connectable=0;strokeColor=inherit;overflow=hidden;fillColor=none;top=0;left=0;bottom=0;right=0;pointerEvents=1;fontSize=11;rowspan=1;colspan=2;" vertex="1" parent="zNFJ4cj6PXObmbsLO68b-39">
          <mxGeometry x="63" width="275" height="40" as="geometry">
            <mxRectangle width="30" height="40" as="alternateBounds" />
          </mxGeometry>
        </mxCell>
        <mxCell id="zNFJ4cj6PXObmbsLO68b-43" value="WidgetType" style="shape=partialRectangle;html=1;whiteSpace=wrap;connectable=0;strokeColor=inherit;overflow=hidden;fillColor=none;top=0;left=0;bottom=0;right=0;pointerEvents=1;fontSize=11;" vertex="1" visible="0" parent="zNFJ4cj6PXObmbsLO68b-39">
          <mxGeometry x="93" width="245" height="40" as="geometry">
            <mxRectangle width="245" height="40" as="alternateBounds" />
          </mxGeometry>
        </mxCell>
        <mxCell id="zNFJ4cj6PXObmbsLO68b-44" value="&lt;span style=&quot;caret-color: rgb(0, 0, 0); color: rgb(0, 0, 0); font-family: Helvetica; font-size: 11px; font-style: normal; font-variant-caps: normal; font-weight: 400; letter-spacing: normal; orphans: auto; text-align: center; text-indent: 0px; text-transform: none; white-space: normal; widows: auto; word-spacing: 0px; -webkit-text-stroke-width: 0px; background-color: rgb(251, 251, 251); text-decoration: none; display: inline !important; float: none;&quot;&gt;Body&lt;/span&gt;" style="shape=partialRectangle;html=1;whiteSpace=wrap;connectable=0;strokeColor=inherit;overflow=hidden;fillColor=none;top=0;left=0;bottom=0;right=0;pointerEvents=1;fontSize=11;" vertex="1" parent="zNFJ4cj6PXObmbsLO68b-39">
          <mxGeometry x="338" width="95" height="40" as="geometry">
            <mxRectangle width="95" height="40" as="alternateBounds" />
          </mxGeometry>
        </mxCell>
        <mxCell id="zNFJ4cj6PXObmbsLO68b-45" value="String" style="shape=partialRectangle;html=1;whiteSpace=wrap;connectable=0;strokeColor=inherit;overflow=hidden;fillColor=none;top=0;left=0;bottom=0;right=0;pointerEvents=1;fontSize=11;" vertex="1" parent="zNFJ4cj6PXObmbsLO68b-39">
          <mxGeometry x="433" width="101" height="40" as="geometry">
            <mxRectangle width="101" height="40" as="alternateBounds" />
          </mxGeometry>
        </mxCell>
        <mxCell id="zNFJ4cj6PXObmbsLO68b-46" value="Тип виджета" style="shape=partialRectangle;html=1;whiteSpace=wrap;connectable=0;strokeColor=inherit;overflow=hidden;fillColor=none;top=0;left=0;bottom=0;right=0;pointerEvents=1;fontSize=11;" vertex="1" parent="zNFJ4cj6PXObmbsLO68b-39">
          <mxGeometry x="534" width="112" height="40" as="geometry">
            <mxRectangle width="112" height="40" as="alternateBounds" />
          </mxGeometry>
        </mxCell>
        <mxCell id="zNFJ4cj6PXObmbsLO68b-47" value="Да" style="shape=partialRectangle;html=1;whiteSpace=wrap;connectable=0;strokeColor=inherit;overflow=hidden;fillColor=none;top=0;left=0;bottom=0;right=0;pointerEvents=1;fontSize=11;" vertex="1" parent="zNFJ4cj6PXObmbsLO68b-39">
          <mxGeometry x="646" width="93" height="40" as="geometry">
            <mxRectangle width="93" height="40" as="alternateBounds" />
          </mxGeometry>
        </mxCell>
        <mxCell id="zNFJ4cj6PXObmbsLO68b-48" style="shape=tableRow;horizontal=0;startSize=0;swimlaneHead=0;swimlaneBody=0;strokeColor=inherit;top=0;left=0;bottom=0;right=0;collapsible=0;dropTarget=0;fillColor=none;points=[[0,0.5],[1,0.5]];portConstraint=eastwest;fontSize=16;" vertex="1" parent="zNFJ4cj6PXObmbsLO68b-2">
          <mxGeometry y="230" width="739" height="40" as="geometry" />
        </mxCell>
        <mxCell id="zNFJ4cj6PXObmbsLO68b-49" style="shape=partialRectangle;html=1;whiteSpace=wrap;connectable=0;strokeColor=inherit;overflow=hidden;fillColor=none;top=0;left=0;bottom=0;right=0;pointerEvents=1;fontSize=11;" vertex="1" parent="zNFJ4cj6PXObmbsLO68b-48">
          <mxGeometry width="33" height="40" as="geometry">
            <mxRectangle width="33" height="40" as="alternateBounds" />
          </mxGeometry>
        </mxCell>
        <mxCell id="zNFJ4cj6PXObmbsLO68b-50" style="shape=partialRectangle;html=1;whiteSpace=wrap;connectable=0;strokeColor=inherit;overflow=hidden;fillColor=none;top=0;left=0;bottom=0;right=0;pointerEvents=1;fontSize=11;" vertex="1" parent="zNFJ4cj6PXObmbsLO68b-48">
          <mxGeometry x="33" width="30" height="40" as="geometry">
            <mxRectangle width="30" height="40" as="alternateBounds" />
          </mxGeometry>
        </mxCell>
        <mxCell id="zNFJ4cj6PXObmbsLO68b-51" value="widgetData" style="shape=partialRectangle;html=1;whiteSpace=wrap;connectable=0;strokeColor=inherit;overflow=hidden;fillColor=none;top=0;left=0;bottom=0;right=0;pointerEvents=1;fontSize=11;rowspan=1;colspan=2;" vertex="1" parent="zNFJ4cj6PXObmbsLO68b-48">
          <mxGeometry x="63" width="275" height="40" as="geometry">
            <mxRectangle width="30" height="40" as="alternateBounds" />
          </mxGeometry>
        </mxCell>
        <mxCell id="zNFJ4cj6PXObmbsLO68b-52" value="WidgetData" style="shape=partialRectangle;html=1;whiteSpace=wrap;connectable=0;strokeColor=inherit;overflow=hidden;fillColor=none;top=0;left=0;bottom=0;right=0;pointerEvents=1;fontSize=11;" vertex="1" visible="0" parent="zNFJ4cj6PXObmbsLO68b-48">
          <mxGeometry x="93" width="245" height="40" as="geometry">
            <mxRectangle width="245" height="40" as="alternateBounds" />
          </mxGeometry>
        </mxCell>
        <mxCell id="zNFJ4cj6PXObmbsLO68b-53" value="&lt;span style=&quot;caret-color: rgb(0, 0, 0); color: rgb(0, 0, 0); font-family: Helvetica; font-size: 11px; font-style: normal; font-variant-caps: normal; font-weight: 400; letter-spacing: normal; orphans: auto; text-align: center; text-indent: 0px; text-transform: none; white-space: normal; widows: auto; word-spacing: 0px; -webkit-text-stroke-width: 0px; background-color: rgb(251, 251, 251); text-decoration: none; display: inline !important; float: none;&quot;&gt;Body&lt;/span&gt;" style="shape=partialRectangle;html=1;whiteSpace=wrap;connectable=0;strokeColor=inherit;overflow=hidden;fillColor=none;top=0;left=0;bottom=0;right=0;pointerEvents=1;fontSize=11;" vertex="1" parent="zNFJ4cj6PXObmbsLO68b-48">
          <mxGeometry x="338" width="95" height="40" as="geometry">
            <mxRectangle width="95" height="40" as="alternateBounds" />
          </mxGeometry>
        </mxCell>
        <mxCell id="zNFJ4cj6PXObmbsLO68b-54" value="Object&amp;nbsp;" style="shape=partialRectangle;html=1;whiteSpace=wrap;connectable=0;strokeColor=inherit;overflow=hidden;fillColor=none;top=0;left=0;bottom=0;right=0;pointerEvents=1;fontSize=11;" vertex="1" parent="zNFJ4cj6PXObmbsLO68b-48">
          <mxGeometry x="433" width="101" height="40" as="geometry">
            <mxRectangle width="101" height="40" as="alternateBounds" />
          </mxGeometry>
        </mxCell>
        <mxCell id="zNFJ4cj6PXObmbsLO68b-55" value="Объект с данными(наполнение виджета)" style="shape=partialRectangle;html=1;whiteSpace=wrap;connectable=0;strokeColor=inherit;overflow=hidden;fillColor=none;top=0;left=0;bottom=0;right=0;pointerEvents=1;fontSize=11;" vertex="1" parent="zNFJ4cj6PXObmbsLO68b-48">
          <mxGeometry x="534" width="112" height="40" as="geometry">
            <mxRectangle width="112" height="40" as="alternateBounds" />
          </mxGeometry>
        </mxCell>
        <mxCell id="zNFJ4cj6PXObmbsLO68b-56" value="Да" style="shape=partialRectangle;html=1;whiteSpace=wrap;connectable=0;strokeColor=inherit;overflow=hidden;fillColor=none;top=0;left=0;bottom=0;right=0;pointerEvents=1;fontSize=11;" vertex="1" parent="zNFJ4cj6PXObmbsLO68b-48">
          <mxGeometry x="646" width="93" height="40" as="geometry">
            <mxRectangle width="93" height="40" as="alternateBounds" />
          </mxGeometry>
        </mxCell>
        <mxCell id="zNFJ4cj6PXObmbsLO68b-57" style="shape=tableRow;horizontal=0;startSize=0;swimlaneHead=0;swimlaneBody=0;strokeColor=inherit;top=0;left=0;bottom=0;right=0;collapsible=0;dropTarget=0;fillColor=none;points=[[0,0.5],[1,0.5]];portConstraint=eastwest;fontSize=16;" vertex="1" parent="zNFJ4cj6PXObmbsLO68b-2">
          <mxGeometry y="270" width="739" height="58" as="geometry" />
        </mxCell>
        <mxCell id="zNFJ4cj6PXObmbsLO68b-58" style="shape=partialRectangle;html=1;whiteSpace=wrap;connectable=0;strokeColor=inherit;overflow=hidden;fillColor=none;top=0;left=0;bottom=0;right=0;pointerEvents=1;fontSize=11;" vertex="1" parent="zNFJ4cj6PXObmbsLO68b-57">
          <mxGeometry width="33" height="58" as="geometry">
            <mxRectangle width="33" height="58" as="alternateBounds" />
          </mxGeometry>
        </mxCell>
        <mxCell id="zNFJ4cj6PXObmbsLO68b-59" style="shape=partialRectangle;html=1;whiteSpace=wrap;connectable=0;strokeColor=inherit;overflow=hidden;fillColor=none;top=0;left=0;bottom=0;right=0;pointerEvents=1;fontSize=11;" vertex="1" parent="zNFJ4cj6PXObmbsLO68b-57">
          <mxGeometry x="33" width="30" height="58" as="geometry">
            <mxRectangle width="30" height="58" as="alternateBounds" />
          </mxGeometry>
        </mxCell>
        <mxCell id="zNFJ4cj6PXObmbsLO68b-60" style="shape=partialRectangle;html=1;whiteSpace=wrap;connectable=0;strokeColor=inherit;overflow=hidden;fillColor=none;top=0;left=0;bottom=0;right=0;pointerEvents=1;fontSize=11;" vertex="1" parent="zNFJ4cj6PXObmbsLO68b-57">
          <mxGeometry x="63" width="30" height="58" as="geometry">
            <mxRectangle width="30" height="58" as="alternateBounds" />
          </mxGeometry>
        </mxCell>
        <mxCell id="zNFJ4cj6PXObmbsLO68b-61" value="someData - key/value" style="shape=partialRectangle;html=1;whiteSpace=wrap;connectable=1;strokeColor=inherit;overflow=hidden;fillColor=none;top=0;left=0;bottom=0;right=0;pointerEvents=1;fontSize=11;container=1;movable=1;resizable=1;rotatable=1;deletable=1;editable=1;locked=0;" vertex="1" parent="zNFJ4cj6PXObmbsLO68b-57">
          <mxGeometry x="93" width="245" height="58" as="geometry">
            <mxRectangle width="245" height="58" as="alternateBounds" />
          </mxGeometry>
        </mxCell>
        <mxCell id="zNFJ4cj6PXObmbsLO68b-62" value="&lt;span style=&quot;caret-color: rgb(0, 0, 0); color: rgb(0, 0, 0); font-family: Helvetica; font-size: 11px; font-style: normal; font-variant-caps: normal; font-weight: 400; letter-spacing: normal; orphans: auto; text-align: center; text-indent: 0px; text-transform: none; white-space: normal; widows: auto; word-spacing: 0px; -webkit-text-stroke-width: 0px; background-color: rgb(251, 251, 251); text-decoration: none; display: inline !important; float: none;&quot;&gt;Body&lt;/span&gt;" style="shape=partialRectangle;html=1;whiteSpace=wrap;connectable=0;strokeColor=inherit;overflow=hidden;fillColor=none;top=0;left=0;bottom=0;right=0;pointerEvents=1;fontSize=11;" vertex="1" parent="zNFJ4cj6PXObmbsLO68b-57">
          <mxGeometry x="338" width="95" height="58" as="geometry">
            <mxRectangle width="95" height="58" as="alternateBounds" />
          </mxGeometry>
        </mxCell>
        <mxCell id="zNFJ4cj6PXObmbsLO68b-63" value="Array" style="shape=partialRectangle;html=1;whiteSpace=wrap;connectable=0;strokeColor=inherit;overflow=hidden;fillColor=none;top=0;left=0;bottom=0;right=0;pointerEvents=1;fontSize=11;" vertex="1" parent="zNFJ4cj6PXObmbsLO68b-57">
          <mxGeometry x="433" width="101" height="58" as="geometry">
            <mxRectangle width="101" height="58" as="alternateBounds" />
          </mxGeometry>
        </mxCell>
        <mxCell id="zNFJ4cj6PXObmbsLO68b-64" value="Могут быть точки для графиков, котировки акций и тд" style="shape=partialRectangle;html=1;whiteSpace=wrap;connectable=0;strokeColor=inherit;overflow=hidden;fillColor=none;top=0;left=0;bottom=0;right=0;pointerEvents=1;fontSize=11;" vertex="1" parent="zNFJ4cj6PXObmbsLO68b-57">
          <mxGeometry x="534" width="112" height="58" as="geometry">
            <mxRectangle width="112" height="58" as="alternateBounds" />
          </mxGeometry>
        </mxCell>
        <mxCell id="zNFJ4cj6PXObmbsLO68b-65" value="Да" style="shape=partialRectangle;html=1;whiteSpace=wrap;connectable=0;strokeColor=inherit;overflow=hidden;fillColor=none;top=0;left=0;bottom=0;right=0;pointerEvents=1;fontSize=11;" vertex="1" parent="zNFJ4cj6PXObmbsLO68b-57">
          <mxGeometry x="646" width="93" height="58" as="geometry">
            <mxRectangle width="93" height="58" as="alternateBounds" />
          </mxGeometry>
        </mxCell>
        <mxCell id="zNFJ4cj6PXObmbsLO68b-66" style="shape=tableRow;horizontal=0;startSize=0;swimlaneHead=0;swimlaneBody=0;strokeColor=inherit;top=0;left=0;bottom=0;right=0;collapsible=0;dropTarget=0;fillColor=none;points=[[0,0.5],[1,0.5]];portConstraint=eastwest;fontSize=16;" vertex="1" parent="zNFJ4cj6PXObmbsLO68b-2">
          <mxGeometry y="328" width="739" height="58" as="geometry" />
        </mxCell>
        <mxCell id="zNFJ4cj6PXObmbsLO68b-67" style="shape=partialRectangle;html=1;whiteSpace=wrap;connectable=0;strokeColor=inherit;overflow=hidden;fillColor=none;top=0;left=0;bottom=0;right=0;pointerEvents=1;fontSize=11;" vertex="1" parent="zNFJ4cj6PXObmbsLO68b-66">
          <mxGeometry width="33" height="58" as="geometry">
            <mxRectangle width="33" height="58" as="alternateBounds" />
          </mxGeometry>
        </mxCell>
        <mxCell id="zNFJ4cj6PXObmbsLO68b-68" style="shape=partialRectangle;html=1;whiteSpace=wrap;connectable=0;strokeColor=inherit;overflow=hidden;fillColor=none;top=0;left=0;bottom=0;right=0;pointerEvents=1;fontSize=11;" vertex="1" parent="zNFJ4cj6PXObmbsLO68b-66">
          <mxGeometry x="33" width="30" height="58" as="geometry">
            <mxRectangle width="30" height="58" as="alternateBounds" />
          </mxGeometry>
        </mxCell>
        <mxCell id="zNFJ4cj6PXObmbsLO68b-69" value="settings" style="shape=partialRectangle;html=1;whiteSpace=wrap;connectable=0;strokeColor=inherit;overflow=hidden;fillColor=none;top=0;left=0;bottom=0;right=0;pointerEvents=1;fontSize=11;rowspan=1;colspan=2;" vertex="1" parent="zNFJ4cj6PXObmbsLO68b-66">
          <mxGeometry x="63" width="275" height="58" as="geometry">
            <mxRectangle width="30" height="58" as="alternateBounds" />
          </mxGeometry>
        </mxCell>
        <mxCell id="zNFJ4cj6PXObmbsLO68b-70" style="shape=partialRectangle;html=1;whiteSpace=wrap;connectable=1;strokeColor=inherit;overflow=hidden;fillColor=none;top=0;left=0;bottom=0;right=0;pointerEvents=1;fontSize=11;container=1;movable=1;resizable=1;rotatable=1;deletable=1;editable=1;locked=0;" vertex="1" visible="0" parent="zNFJ4cj6PXObmbsLO68b-66">
          <mxGeometry x="93" width="245" height="58" as="geometry">
            <mxRectangle width="245" height="58" as="alternateBounds" />
          </mxGeometry>
        </mxCell>
        <mxCell id="zNFJ4cj6PXObmbsLO68b-71" value="body" style="shape=partialRectangle;html=1;whiteSpace=wrap;connectable=0;strokeColor=inherit;overflow=hidden;fillColor=none;top=0;left=0;bottom=0;right=0;pointerEvents=1;fontSize=11;" vertex="1" parent="zNFJ4cj6PXObmbsLO68b-66">
          <mxGeometry x="338" width="95" height="58" as="geometry">
            <mxRectangle width="95" height="58" as="alternateBounds" />
          </mxGeometry>
        </mxCell>
        <mxCell id="zNFJ4cj6PXObmbsLO68b-72" value="Object" style="shape=partialRectangle;html=1;whiteSpace=wrap;connectable=0;strokeColor=inherit;overflow=hidden;fillColor=none;top=0;left=0;bottom=0;right=0;pointerEvents=1;fontSize=11;" vertex="1" parent="zNFJ4cj6PXObmbsLO68b-66">
          <mxGeometry x="433" width="101" height="58" as="geometry">
            <mxRectangle width="101" height="58" as="alternateBounds" />
          </mxGeometry>
        </mxCell>
        <mxCell id="zNFJ4cj6PXObmbsLO68b-73" value="Объект персональных настроек виджета для пользователя" style="shape=partialRectangle;html=1;whiteSpace=wrap;connectable=0;strokeColor=inherit;overflow=hidden;fillColor=none;top=0;left=0;bottom=0;right=0;pointerEvents=1;fontSize=11;" vertex="1" parent="zNFJ4cj6PXObmbsLO68b-66">
          <mxGeometry x="534" width="112" height="58" as="geometry">
            <mxRectangle width="112" height="58" as="alternateBounds" />
          </mxGeometry>
        </mxCell>
        <mxCell id="zNFJ4cj6PXObmbsLO68b-74" value="да" style="shape=partialRectangle;html=1;whiteSpace=wrap;connectable=0;strokeColor=inherit;overflow=hidden;fillColor=none;top=0;left=0;bottom=0;right=0;pointerEvents=1;fontSize=11;" vertex="1" parent="zNFJ4cj6PXObmbsLO68b-66">
          <mxGeometry x="646" width="93" height="58" as="geometry">
            <mxRectangle width="93" height="58" as="alternateBounds" />
          </mxGeometry>
        </mxCell>
        <mxCell id="zNFJ4cj6PXObmbsLO68b-75" style="shape=tableRow;horizontal=0;startSize=0;swimlaneHead=0;swimlaneBody=0;strokeColor=inherit;top=0;left=0;bottom=0;right=0;collapsible=0;dropTarget=0;fillColor=none;points=[[0,0.5],[1,0.5]];portConstraint=eastwest;fontSize=16;" vertex="1" parent="zNFJ4cj6PXObmbsLO68b-2">
          <mxGeometry y="386" width="739" height="62" as="geometry" />
        </mxCell>
        <mxCell id="zNFJ4cj6PXObmbsLO68b-76" style="shape=partialRectangle;html=1;whiteSpace=wrap;connectable=0;strokeColor=inherit;overflow=hidden;fillColor=none;top=0;left=0;bottom=0;right=0;pointerEvents=1;fontSize=11;" vertex="1" parent="zNFJ4cj6PXObmbsLO68b-75">
          <mxGeometry width="33" height="62" as="geometry">
            <mxRectangle width="33" height="62" as="alternateBounds" />
          </mxGeometry>
        </mxCell>
        <mxCell id="zNFJ4cj6PXObmbsLO68b-77" style="shape=partialRectangle;html=1;whiteSpace=wrap;connectable=0;strokeColor=inherit;overflow=hidden;fillColor=none;top=0;left=0;bottom=0;right=0;pointerEvents=1;fontSize=11;" vertex="1" parent="zNFJ4cj6PXObmbsLO68b-75">
          <mxGeometry x="33" width="30" height="62" as="geometry">
            <mxRectangle width="30" height="62" as="alternateBounds" />
          </mxGeometry>
        </mxCell>
        <mxCell id="zNFJ4cj6PXObmbsLO68b-78" style="shape=partialRectangle;html=1;whiteSpace=wrap;connectable=0;strokeColor=inherit;overflow=hidden;fillColor=none;top=0;left=0;bottom=0;right=0;pointerEvents=1;fontSize=11;" vertex="1" parent="zNFJ4cj6PXObmbsLO68b-75">
          <mxGeometry x="63" width="30" height="62" as="geometry">
            <mxRectangle width="30" height="62" as="alternateBounds" />
          </mxGeometry>
        </mxCell>
        <mxCell id="zNFJ4cj6PXObmbsLO68b-79" value="&lt;span style=&quot;caret-color: rgb(0, 0, 0); color: rgb(0, 0, 0); font-family: Helvetica; font-size: 11px; font-style: normal; font-variant-caps: normal; font-weight: 400; letter-spacing: normal; orphans: auto; text-align: center; text-indent: 0px; text-transform: none; white-space: normal; widows: auto; word-spacing: 0px; -webkit-text-stroke-width: 0px; background-color: rgb(251, 251, 251); text-decoration: none; display: inline !important; float: none;&quot;&gt;posX&lt;/span&gt;" style="shape=partialRectangle;html=1;whiteSpace=wrap;connectable=1;strokeColor=inherit;overflow=hidden;fillColor=none;top=0;left=0;bottom=0;right=0;pointerEvents=1;fontSize=11;container=1;movable=1;resizable=1;rotatable=1;deletable=1;editable=1;locked=0;" vertex="1" parent="zNFJ4cj6PXObmbsLO68b-75">
          <mxGeometry x="93" width="245" height="62" as="geometry">
            <mxRectangle width="245" height="62" as="alternateBounds" />
          </mxGeometry>
        </mxCell>
        <mxCell id="zNFJ4cj6PXObmbsLO68b-80" value="Body" style="shape=partialRectangle;html=1;whiteSpace=wrap;connectable=0;strokeColor=inherit;overflow=hidden;fillColor=none;top=0;left=0;bottom=0;right=0;pointerEvents=1;fontSize=11;" vertex="1" parent="zNFJ4cj6PXObmbsLO68b-75">
          <mxGeometry x="338" width="95" height="62" as="geometry">
            <mxRectangle width="95" height="62" as="alternateBounds" />
          </mxGeometry>
        </mxCell>
        <mxCell id="zNFJ4cj6PXObmbsLO68b-81" value="&lt;span style=&quot;caret-color: rgb(0, 0, 0); color: rgb(0, 0, 0); font-family: Helvetica; font-size: 11px; font-style: normal; font-variant-caps: normal; font-weight: 400; letter-spacing: normal; orphans: auto; text-align: center; text-indent: 0px; text-transform: none; white-space: normal; widows: auto; word-spacing: 0px; -webkit-text-stroke-width: 0px; background-color: rgb(251, 251, 251); text-decoration: none; display: inline !important; float: none;&quot;&gt;Int&lt;/span&gt;" style="shape=partialRectangle;html=1;whiteSpace=wrap;connectable=0;strokeColor=inherit;overflow=hidden;fillColor=none;top=0;left=0;bottom=0;right=0;pointerEvents=1;fontSize=11;" vertex="1" parent="zNFJ4cj6PXObmbsLO68b-75">
          <mxGeometry x="433" width="101" height="62" as="geometry">
            <mxRectangle width="101" height="62" as="alternateBounds" />
          </mxGeometry>
        </mxCell>
        <mxCell id="zNFJ4cj6PXObmbsLO68b-82" value="&lt;span style=&quot;caret-color: rgb(0, 0, 0); color: rgb(0, 0, 0); font-family: Helvetica; font-size: 11px; font-style: normal; font-variant-caps: normal; font-weight: 400; letter-spacing: normal; orphans: auto; text-align: center; text-indent: 0px; text-transform: none; white-space: normal; widows: auto; word-spacing: 0px; -webkit-text-stroke-width: 0px; background-color: rgb(251, 251, 251); text-decoration: none; display: inline !important; float: none;&quot;&gt;Позиция Х&lt;/span&gt;" style="shape=partialRectangle;html=1;whiteSpace=wrap;connectable=0;strokeColor=inherit;overflow=hidden;fillColor=none;top=0;left=0;bottom=0;right=0;pointerEvents=1;fontSize=11;" vertex="1" parent="zNFJ4cj6PXObmbsLO68b-75">
          <mxGeometry x="534" width="112" height="62" as="geometry">
            <mxRectangle width="112" height="62" as="alternateBounds" />
          </mxGeometry>
        </mxCell>
        <mxCell id="zNFJ4cj6PXObmbsLO68b-83" value="да" style="shape=partialRectangle;html=1;whiteSpace=wrap;connectable=0;strokeColor=inherit;overflow=hidden;fillColor=none;top=0;left=0;bottom=0;right=0;pointerEvents=1;fontSize=11;" vertex="1" parent="zNFJ4cj6PXObmbsLO68b-75">
          <mxGeometry x="646" width="93" height="62" as="geometry">
            <mxRectangle width="93" height="62" as="alternateBounds" />
          </mxGeometry>
        </mxCell>
        <mxCell id="zNFJ4cj6PXObmbsLO68b-84" style="shape=tableRow;horizontal=0;startSize=0;swimlaneHead=0;swimlaneBody=0;strokeColor=inherit;top=0;left=0;bottom=0;right=0;collapsible=0;dropTarget=0;fillColor=none;points=[[0,0.5],[1,0.5]];portConstraint=eastwest;fontSize=16;" vertex="1" parent="zNFJ4cj6PXObmbsLO68b-2">
          <mxGeometry y="448" width="739" height="58" as="geometry" />
        </mxCell>
        <mxCell id="zNFJ4cj6PXObmbsLO68b-85" style="shape=partialRectangle;html=1;whiteSpace=wrap;connectable=0;strokeColor=inherit;overflow=hidden;fillColor=none;top=0;left=0;bottom=0;right=0;pointerEvents=1;fontSize=11;" vertex="1" parent="zNFJ4cj6PXObmbsLO68b-84">
          <mxGeometry width="33" height="58" as="geometry">
            <mxRectangle width="33" height="58" as="alternateBounds" />
          </mxGeometry>
        </mxCell>
        <mxCell id="zNFJ4cj6PXObmbsLO68b-86" style="shape=partialRectangle;html=1;whiteSpace=wrap;connectable=0;strokeColor=inherit;overflow=hidden;fillColor=none;top=0;left=0;bottom=0;right=0;pointerEvents=1;fontSize=11;" vertex="1" parent="zNFJ4cj6PXObmbsLO68b-84">
          <mxGeometry x="33" width="30" height="58" as="geometry">
            <mxRectangle width="30" height="58" as="alternateBounds" />
          </mxGeometry>
        </mxCell>
        <mxCell id="zNFJ4cj6PXObmbsLO68b-87" style="shape=partialRectangle;html=1;whiteSpace=wrap;connectable=0;strokeColor=inherit;overflow=hidden;fillColor=none;top=0;left=0;bottom=0;right=0;pointerEvents=1;fontSize=11;" vertex="1" parent="zNFJ4cj6PXObmbsLO68b-84">
          <mxGeometry x="63" width="30" height="58" as="geometry">
            <mxRectangle width="30" height="58" as="alternateBounds" />
          </mxGeometry>
        </mxCell>
        <mxCell id="zNFJ4cj6PXObmbsLO68b-88" value="posY" style="shape=partialRectangle;html=1;whiteSpace=wrap;connectable=1;strokeColor=inherit;overflow=hidden;fillColor=none;top=0;left=0;bottom=0;right=0;pointerEvents=1;fontSize=11;container=1;movable=1;resizable=1;rotatable=1;deletable=1;editable=1;locked=0;" vertex="1" parent="zNFJ4cj6PXObmbsLO68b-84">
          <mxGeometry x="93" width="245" height="58" as="geometry">
            <mxRectangle width="245" height="58" as="alternateBounds" />
          </mxGeometry>
        </mxCell>
        <mxCell id="zNFJ4cj6PXObmbsLO68b-89" value="&lt;span style=&quot;caret-color: rgb(0, 0, 0); color: rgb(0, 0, 0); font-family: Helvetica; font-size: 11px; font-style: normal; font-variant-caps: normal; font-weight: 400; letter-spacing: normal; orphans: auto; text-align: center; text-indent: 0px; text-transform: none; white-space: normal; widows: auto; word-spacing: 0px; -webkit-text-stroke-width: 0px; background-color: rgb(251, 251, 251); text-decoration: none; display: inline !important; float: none;&quot;&gt;Body&lt;/span&gt;" style="shape=partialRectangle;html=1;whiteSpace=wrap;connectable=0;strokeColor=inherit;overflow=hidden;fillColor=none;top=0;left=0;bottom=0;right=0;pointerEvents=1;fontSize=11;" vertex="1" parent="zNFJ4cj6PXObmbsLO68b-84">
          <mxGeometry x="338" width="95" height="58" as="geometry">
            <mxRectangle width="95" height="58" as="alternateBounds" />
          </mxGeometry>
        </mxCell>
        <mxCell id="zNFJ4cj6PXObmbsLO68b-90" value="&lt;span style=&quot;caret-color: rgb(0, 0, 0); color: rgb(0, 0, 0); font-family: Helvetica; font-size: 11px; font-style: normal; font-variant-caps: normal; font-weight: 400; letter-spacing: normal; orphans: auto; text-align: center; text-indent: 0px; text-transform: none; white-space: normal; widows: auto; word-spacing: 0px; -webkit-text-stroke-width: 0px; background-color: rgb(251, 251, 251); text-decoration: none; display: inline !important; float: none;&quot;&gt;Int&lt;/span&gt;" style="shape=partialRectangle;html=1;whiteSpace=wrap;connectable=0;strokeColor=inherit;overflow=hidden;fillColor=none;top=0;left=0;bottom=0;right=0;pointerEvents=1;fontSize=11;" vertex="1" parent="zNFJ4cj6PXObmbsLO68b-84">
          <mxGeometry x="433" width="101" height="58" as="geometry">
            <mxRectangle width="101" height="58" as="alternateBounds" />
          </mxGeometry>
        </mxCell>
        <mxCell id="zNFJ4cj6PXObmbsLO68b-91" value="&lt;span style=&quot;caret-color: rgb(0, 0, 0); color: rgb(0, 0, 0); font-family: Helvetica; font-size: 11px; font-style: normal; font-variant-caps: normal; font-weight: 400; letter-spacing: normal; orphans: auto; text-align: center; text-indent: 0px; text-transform: none; white-space: normal; widows: auto; word-spacing: 0px; -webkit-text-stroke-width: 0px; background-color: rgb(251, 251, 251); text-decoration: none; display: inline !important; float: none;&quot;&gt;Позиция Y&lt;/span&gt;" style="shape=partialRectangle;html=1;whiteSpace=wrap;connectable=0;strokeColor=inherit;overflow=hidden;fillColor=none;top=0;left=0;bottom=0;right=0;pointerEvents=1;fontSize=11;" vertex="1" parent="zNFJ4cj6PXObmbsLO68b-84">
          <mxGeometry x="534" width="112" height="58" as="geometry">
            <mxRectangle width="112" height="58" as="alternateBounds" />
          </mxGeometry>
        </mxCell>
        <mxCell id="zNFJ4cj6PXObmbsLO68b-92" value="да" style="shape=partialRectangle;html=1;whiteSpace=wrap;connectable=0;strokeColor=inherit;overflow=hidden;fillColor=none;top=0;left=0;bottom=0;right=0;pointerEvents=1;fontSize=11;" vertex="1" parent="zNFJ4cj6PXObmbsLO68b-84">
          <mxGeometry x="646" width="93" height="58" as="geometry">
            <mxRectangle width="93" height="58" as="alternateBounds" />
          </mxGeometry>
        </mxCell>
        <mxCell id="zNFJ4cj6PXObmbsLO68b-93" style="shape=tableRow;horizontal=0;startSize=0;swimlaneHead=0;swimlaneBody=0;strokeColor=inherit;top=0;left=0;bottom=0;right=0;collapsible=0;dropTarget=0;fillColor=none;points=[[0,0.5],[1,0.5]];portConstraint=eastwest;fontSize=16;" vertex="1" parent="zNFJ4cj6PXObmbsLO68b-2">
          <mxGeometry y="506" width="739" height="58" as="geometry" />
        </mxCell>
        <mxCell id="zNFJ4cj6PXObmbsLO68b-94" style="shape=partialRectangle;html=1;whiteSpace=wrap;connectable=0;strokeColor=inherit;overflow=hidden;fillColor=none;top=0;left=0;bottom=0;right=0;pointerEvents=1;fontSize=11;" vertex="1" parent="zNFJ4cj6PXObmbsLO68b-93">
          <mxGeometry width="33" height="58" as="geometry">
            <mxRectangle width="33" height="58" as="alternateBounds" />
          </mxGeometry>
        </mxCell>
        <mxCell id="zNFJ4cj6PXObmbsLO68b-95" style="shape=partialRectangle;html=1;whiteSpace=wrap;connectable=0;strokeColor=inherit;overflow=hidden;fillColor=none;top=0;left=0;bottom=0;right=0;pointerEvents=1;fontSize=11;" vertex="1" parent="zNFJ4cj6PXObmbsLO68b-93">
          <mxGeometry x="33" width="30" height="58" as="geometry">
            <mxRectangle width="30" height="58" as="alternateBounds" />
          </mxGeometry>
        </mxCell>
        <mxCell id="zNFJ4cj6PXObmbsLO68b-96" style="shape=partialRectangle;html=1;whiteSpace=wrap;connectable=0;strokeColor=inherit;overflow=hidden;fillColor=none;top=0;left=0;bottom=0;right=0;pointerEvents=1;fontSize=11;" vertex="1" parent="zNFJ4cj6PXObmbsLO68b-93">
          <mxGeometry x="63" width="30" height="58" as="geometry">
            <mxRectangle width="30" height="58" as="alternateBounds" />
          </mxGeometry>
        </mxCell>
        <mxCell id="zNFJ4cj6PXObmbsLO68b-97" value="widgetSize" style="shape=partialRectangle;html=1;whiteSpace=wrap;connectable=1;strokeColor=inherit;overflow=hidden;fillColor=none;top=0;left=0;bottom=0;right=0;pointerEvents=1;fontSize=11;container=1;movable=1;resizable=1;rotatable=1;deletable=1;editable=1;locked=0;" vertex="1" parent="zNFJ4cj6PXObmbsLO68b-93">
          <mxGeometry x="93" width="245" height="58" as="geometry">
            <mxRectangle width="245" height="58" as="alternateBounds" />
          </mxGeometry>
        </mxCell>
        <mxCell id="zNFJ4cj6PXObmbsLO68b-98" value="&lt;span style=&quot;caret-color: rgb(0, 0, 0); color: rgb(0, 0, 0); font-family: Helvetica; font-size: 11px; font-style: normal; font-variant-caps: normal; font-weight: 400; letter-spacing: normal; orphans: auto; text-align: center; text-indent: 0px; text-transform: none; white-space: normal; widows: auto; word-spacing: 0px; -webkit-text-stroke-width: 0px; background-color: rgb(251, 251, 251); text-decoration: none; display: inline !important; float: none;&quot;&gt;Body&lt;/span&gt;" style="shape=partialRectangle;html=1;whiteSpace=wrap;connectable=0;strokeColor=inherit;overflow=hidden;fillColor=none;top=0;left=0;bottom=0;right=0;pointerEvents=1;fontSize=11;" vertex="1" parent="zNFJ4cj6PXObmbsLO68b-93">
          <mxGeometry x="338" width="95" height="58" as="geometry">
            <mxRectangle width="95" height="58" as="alternateBounds" />
          </mxGeometry>
        </mxCell>
        <mxCell id="zNFJ4cj6PXObmbsLO68b-99" value="String" style="shape=partialRectangle;html=1;whiteSpace=wrap;connectable=0;strokeColor=inherit;overflow=hidden;fillColor=none;top=0;left=0;bottom=0;right=0;pointerEvents=1;fontSize=11;" vertex="1" parent="zNFJ4cj6PXObmbsLO68b-93">
          <mxGeometry x="433" width="101" height="58" as="geometry">
            <mxRectangle width="101" height="58" as="alternateBounds" />
          </mxGeometry>
        </mxCell>
        <mxCell id="zNFJ4cj6PXObmbsLO68b-100" value="&lt;span style=&quot;caret-color: rgb(0, 0, 0); color: rgb(0, 0, 0); font-family: Helvetica; font-size: 11px; font-style: normal; font-variant-caps: normal; font-weight: 400; letter-spacing: normal; orphans: auto; text-align: center; text-indent: 0px; text-transform: none; white-space: normal; widows: auto; word-spacing: 0px; -webkit-text-stroke-width: 0px; background-color: rgb(251, 251, 251); text-decoration: none; display: inline !important; float: none;&quot;&gt;Размерность виджета&lt;/span&gt;" style="shape=partialRectangle;html=1;whiteSpace=wrap;connectable=0;strokeColor=inherit;overflow=hidden;fillColor=none;top=0;left=0;bottom=0;right=0;pointerEvents=1;fontSize=11;" vertex="1" parent="zNFJ4cj6PXObmbsLO68b-93">
          <mxGeometry x="534" width="112" height="58" as="geometry">
            <mxRectangle width="112" height="58" as="alternateBounds" />
          </mxGeometry>
        </mxCell>
        <mxCell id="zNFJ4cj6PXObmbsLO68b-101" value="да" style="shape=partialRectangle;html=1;whiteSpace=wrap;connectable=0;strokeColor=inherit;overflow=hidden;fillColor=none;top=0;left=0;bottom=0;right=0;pointerEvents=1;fontSize=11;" vertex="1" parent="zNFJ4cj6PXObmbsLO68b-93">
          <mxGeometry x="646" width="93" height="58" as="geometry">
            <mxRectangle width="93" height="58" as="alternateBounds" />
          </mxGeometry>
        </mxCell>
        <mxCell id="zNFJ4cj6PXObmbsLO68b-102" style="shape=tableRow;horizontal=0;startSize=0;swimlaneHead=0;swimlaneBody=0;strokeColor=inherit;top=0;left=0;bottom=0;right=0;collapsible=0;dropTarget=0;fillColor=none;points=[[0,0.5],[1,0.5]];portConstraint=eastwest;fontSize=16;" vertex="1" parent="zNFJ4cj6PXObmbsLO68b-2">
          <mxGeometry y="564" width="739" height="58" as="geometry" />
        </mxCell>
        <mxCell id="zNFJ4cj6PXObmbsLO68b-103" style="shape=partialRectangle;html=1;whiteSpace=wrap;connectable=0;strokeColor=inherit;overflow=hidden;fillColor=none;top=0;left=0;bottom=0;right=0;pointerEvents=1;fontSize=11;" vertex="1" parent="zNFJ4cj6PXObmbsLO68b-102">
          <mxGeometry width="33" height="58" as="geometry">
            <mxRectangle width="33" height="58" as="alternateBounds" />
          </mxGeometry>
        </mxCell>
        <mxCell id="zNFJ4cj6PXObmbsLO68b-104" style="shape=partialRectangle;html=1;whiteSpace=wrap;connectable=0;strokeColor=inherit;overflow=hidden;fillColor=none;top=0;left=0;bottom=0;right=0;pointerEvents=1;fontSize=11;" vertex="1" parent="zNFJ4cj6PXObmbsLO68b-102">
          <mxGeometry x="33" width="30" height="58" as="geometry">
            <mxRectangle width="30" height="58" as="alternateBounds" />
          </mxGeometry>
        </mxCell>
        <mxCell id="zNFJ4cj6PXObmbsLO68b-105" style="shape=partialRectangle;html=1;whiteSpace=wrap;connectable=0;strokeColor=inherit;overflow=hidden;fillColor=none;top=0;left=0;bottom=0;right=0;pointerEvents=1;fontSize=11;" vertex="1" parent="zNFJ4cj6PXObmbsLO68b-102">
          <mxGeometry x="63" width="30" height="58" as="geometry">
            <mxRectangle width="30" height="58" as="alternateBounds" />
          </mxGeometry>
        </mxCell>
        <mxCell id="zNFJ4cj6PXObmbsLO68b-106" value="width" style="shape=partialRectangle;html=1;whiteSpace=wrap;connectable=1;strokeColor=inherit;overflow=hidden;fillColor=none;top=0;left=0;bottom=0;right=0;pointerEvents=1;fontSize=11;container=1;movable=1;resizable=1;rotatable=1;deletable=1;editable=1;locked=0;" vertex="1" parent="zNFJ4cj6PXObmbsLO68b-102">
          <mxGeometry x="93" width="245" height="58" as="geometry">
            <mxRectangle width="245" height="58" as="alternateBounds" />
          </mxGeometry>
        </mxCell>
        <mxCell id="zNFJ4cj6PXObmbsLO68b-107" value="&lt;span style=&quot;caret-color: rgb(0, 0, 0); color: rgb(0, 0, 0); font-family: Helvetica; font-size: 11px; font-style: normal; font-variant-caps: normal; font-weight: 400; letter-spacing: normal; orphans: auto; text-align: center; text-indent: 0px; text-transform: none; white-space: normal; widows: auto; word-spacing: 0px; -webkit-text-stroke-width: 0px; background-color: rgb(251, 251, 251); text-decoration: none; display: inline !important; float: none;&quot;&gt;Body&lt;/span&gt;" style="shape=partialRectangle;html=1;whiteSpace=wrap;connectable=0;strokeColor=inherit;overflow=hidden;fillColor=none;top=0;left=0;bottom=0;right=0;pointerEvents=1;fontSize=11;" vertex="1" parent="zNFJ4cj6PXObmbsLO68b-102">
          <mxGeometry x="338" width="95" height="58" as="geometry">
            <mxRectangle width="95" height="58" as="alternateBounds" />
          </mxGeometry>
        </mxCell>
        <mxCell id="zNFJ4cj6PXObmbsLO68b-108" value="int" style="shape=partialRectangle;html=1;whiteSpace=wrap;connectable=0;strokeColor=inherit;overflow=hidden;fillColor=none;top=0;left=0;bottom=0;right=0;pointerEvents=1;fontSize=11;" vertex="1" parent="zNFJ4cj6PXObmbsLO68b-102">
          <mxGeometry x="433" width="101" height="58" as="geometry">
            <mxRectangle width="101" height="58" as="alternateBounds" />
          </mxGeometry>
        </mxCell>
        <mxCell id="zNFJ4cj6PXObmbsLO68b-109" value="&lt;span style=&quot;caret-color: rgb(0, 0, 0); color: rgb(0, 0, 0); font-family: Helvetica; font-size: 11px; font-style: normal; font-variant-caps: normal; font-weight: 400; letter-spacing: normal; orphans: auto; text-align: center; text-indent: 0px; text-transform: none; white-space: normal; widows: auto; word-spacing: 0px; -webkit-text-stroke-width: 0px; background-color: rgb(251, 251, 251); text-decoration: none; display: inline !important; float: none;&quot;&gt;Ширина виджета&lt;/span&gt;" style="shape=partialRectangle;html=1;whiteSpace=wrap;connectable=0;strokeColor=inherit;overflow=hidden;fillColor=none;top=0;left=0;bottom=0;right=0;pointerEvents=1;fontSize=11;" vertex="1" parent="zNFJ4cj6PXObmbsLO68b-102">
          <mxGeometry x="534" width="112" height="58" as="geometry">
            <mxRectangle width="112" height="58" as="alternateBounds" />
          </mxGeometry>
        </mxCell>
        <mxCell id="zNFJ4cj6PXObmbsLO68b-110" value="да" style="shape=partialRectangle;html=1;whiteSpace=wrap;connectable=0;strokeColor=inherit;overflow=hidden;fillColor=none;top=0;left=0;bottom=0;right=0;pointerEvents=1;fontSize=11;" vertex="1" parent="zNFJ4cj6PXObmbsLO68b-102">
          <mxGeometry x="646" width="93" height="58" as="geometry">
            <mxRectangle width="93" height="58" as="alternateBounds" />
          </mxGeometry>
        </mxCell>
        <mxCell id="zNFJ4cj6PXObmbsLO68b-111" style="shape=tableRow;horizontal=0;startSize=0;swimlaneHead=0;swimlaneBody=0;strokeColor=inherit;top=0;left=0;bottom=0;right=0;collapsible=0;dropTarget=0;fillColor=none;points=[[0,0.5],[1,0.5]];portConstraint=eastwest;fontSize=16;" vertex="1" parent="zNFJ4cj6PXObmbsLO68b-2">
          <mxGeometry y="622" width="739" height="58" as="geometry" />
        </mxCell>
        <mxCell id="zNFJ4cj6PXObmbsLO68b-112" style="shape=partialRectangle;html=1;whiteSpace=wrap;connectable=0;strokeColor=inherit;overflow=hidden;fillColor=none;top=0;left=0;bottom=0;right=0;pointerEvents=1;fontSize=11;" vertex="1" parent="zNFJ4cj6PXObmbsLO68b-111">
          <mxGeometry width="33" height="58" as="geometry">
            <mxRectangle width="33" height="58" as="alternateBounds" />
          </mxGeometry>
        </mxCell>
        <mxCell id="zNFJ4cj6PXObmbsLO68b-113" style="shape=partialRectangle;html=1;whiteSpace=wrap;connectable=0;strokeColor=inherit;overflow=hidden;fillColor=none;top=0;left=0;bottom=0;right=0;pointerEvents=1;fontSize=11;" vertex="1" parent="zNFJ4cj6PXObmbsLO68b-111">
          <mxGeometry x="33" width="30" height="58" as="geometry">
            <mxRectangle width="30" height="58" as="alternateBounds" />
          </mxGeometry>
        </mxCell>
        <mxCell id="zNFJ4cj6PXObmbsLO68b-114" style="shape=partialRectangle;html=1;whiteSpace=wrap;connectable=0;strokeColor=inherit;overflow=hidden;fillColor=none;top=0;left=0;bottom=0;right=0;pointerEvents=1;fontSize=11;" vertex="1" parent="zNFJ4cj6PXObmbsLO68b-111">
          <mxGeometry x="63" width="30" height="58" as="geometry">
            <mxRectangle width="30" height="58" as="alternateBounds" />
          </mxGeometry>
        </mxCell>
        <mxCell id="zNFJ4cj6PXObmbsLO68b-115" value="height" style="shape=partialRectangle;html=1;whiteSpace=wrap;connectable=1;strokeColor=inherit;overflow=hidden;fillColor=none;top=0;left=0;bottom=0;right=0;pointerEvents=1;fontSize=11;container=1;movable=1;resizable=1;rotatable=1;deletable=1;editable=1;locked=0;" vertex="1" parent="zNFJ4cj6PXObmbsLO68b-111">
          <mxGeometry x="93" width="245" height="58" as="geometry">
            <mxRectangle width="245" height="58" as="alternateBounds" />
          </mxGeometry>
        </mxCell>
        <mxCell id="zNFJ4cj6PXObmbsLO68b-116" value="&lt;span style=&quot;caret-color: rgb(0, 0, 0); color: rgb(0, 0, 0); font-family: Helvetica; font-size: 11px; font-style: normal; font-variant-caps: normal; font-weight: 400; letter-spacing: normal; orphans: auto; text-align: center; text-indent: 0px; text-transform: none; white-space: normal; widows: auto; word-spacing: 0px; -webkit-text-stroke-width: 0px; background-color: rgb(251, 251, 251); text-decoration: none; display: inline !important; float: none;&quot;&gt;Body&lt;/span&gt;" style="shape=partialRectangle;html=1;whiteSpace=wrap;connectable=0;strokeColor=inherit;overflow=hidden;fillColor=none;top=0;left=0;bottom=0;right=0;pointerEvents=1;fontSize=11;" vertex="1" parent="zNFJ4cj6PXObmbsLO68b-111">
          <mxGeometry x="338" width="95" height="58" as="geometry">
            <mxRectangle width="95" height="58" as="alternateBounds" />
          </mxGeometry>
        </mxCell>
        <mxCell id="zNFJ4cj6PXObmbsLO68b-117" value="int" style="shape=partialRectangle;html=1;whiteSpace=wrap;connectable=0;strokeColor=inherit;overflow=hidden;fillColor=none;top=0;left=0;bottom=0;right=0;pointerEvents=1;fontSize=11;" vertex="1" parent="zNFJ4cj6PXObmbsLO68b-111">
          <mxGeometry x="433" width="101" height="58" as="geometry">
            <mxRectangle width="101" height="58" as="alternateBounds" />
          </mxGeometry>
        </mxCell>
        <mxCell id="zNFJ4cj6PXObmbsLO68b-118" value="&lt;span style=&quot;caret-color: rgb(0, 0, 0); color: rgb(0, 0, 0); font-family: Helvetica; font-size: 11px; font-style: normal; font-variant-caps: normal; font-weight: 400; letter-spacing: normal; orphans: auto; text-align: center; text-indent: 0px; text-transform: none; white-space: normal; widows: auto; word-spacing: 0px; -webkit-text-stroke-width: 0px; background-color: rgb(251, 251, 251); text-decoration: none; display: inline !important; float: none;&quot;&gt;Высота виджета&lt;/span&gt;" style="shape=partialRectangle;html=1;whiteSpace=wrap;connectable=0;strokeColor=inherit;overflow=hidden;fillColor=none;top=0;left=0;bottom=0;right=0;pointerEvents=1;fontSize=11;" vertex="1" parent="zNFJ4cj6PXObmbsLO68b-111">
          <mxGeometry x="534" width="112" height="58" as="geometry">
            <mxRectangle width="112" height="58" as="alternateBounds" />
          </mxGeometry>
        </mxCell>
        <mxCell id="zNFJ4cj6PXObmbsLO68b-119" value="да" style="shape=partialRectangle;html=1;whiteSpace=wrap;connectable=0;strokeColor=inherit;overflow=hidden;fillColor=none;top=0;left=0;bottom=0;right=0;pointerEvents=1;fontSize=11;" vertex="1" parent="zNFJ4cj6PXObmbsLO68b-111">
          <mxGeometry x="646" width="93" height="58" as="geometry">
            <mxRectangle width="93" height="58" as="alternateBounds" />
          </mxGeometry>
        </mxCell>
        <mxCell id="zNFJ4cj6PXObmbsLO68b-120" style="shape=tableRow;horizontal=0;startSize=0;swimlaneHead=0;swimlaneBody=0;strokeColor=inherit;top=0;left=0;bottom=0;right=0;collapsible=0;dropTarget=0;fillColor=none;points=[[0,0.5],[1,0.5]];portConstraint=eastwest;fontSize=16;" vertex="1" parent="zNFJ4cj6PXObmbsLO68b-2">
          <mxGeometry y="680" width="739" height="58" as="geometry" />
        </mxCell>
        <mxCell id="zNFJ4cj6PXObmbsLO68b-121" style="shape=partialRectangle;html=1;whiteSpace=wrap;connectable=0;strokeColor=inherit;overflow=hidden;fillColor=none;top=0;left=0;bottom=0;right=0;pointerEvents=1;fontSize=11;" vertex="1" parent="zNFJ4cj6PXObmbsLO68b-120">
          <mxGeometry width="33" height="58" as="geometry">
            <mxRectangle width="33" height="58" as="alternateBounds" />
          </mxGeometry>
        </mxCell>
        <mxCell id="zNFJ4cj6PXObmbsLO68b-122" style="shape=partialRectangle;html=1;whiteSpace=wrap;connectable=0;strokeColor=inherit;overflow=hidden;fillColor=none;top=0;left=0;bottom=0;right=0;pointerEvents=1;fontSize=11;" vertex="1" parent="zNFJ4cj6PXObmbsLO68b-120">
          <mxGeometry x="33" width="30" height="58" as="geometry">
            <mxRectangle width="30" height="58" as="alternateBounds" />
          </mxGeometry>
        </mxCell>
        <mxCell id="zNFJ4cj6PXObmbsLO68b-123" style="shape=partialRectangle;html=1;whiteSpace=wrap;connectable=0;strokeColor=inherit;overflow=hidden;fillColor=none;top=0;left=0;bottom=0;right=0;pointerEvents=1;fontSize=11;" vertex="1" parent="zNFJ4cj6PXObmbsLO68b-120">
          <mxGeometry x="63" width="30" height="58" as="geometry">
            <mxRectangle width="30" height="58" as="alternateBounds" />
          </mxGeometry>
        </mxCell>
        <mxCell id="zNFJ4cj6PXObmbsLO68b-124" value="colorScheme" style="shape=partialRectangle;html=1;whiteSpace=wrap;connectable=1;strokeColor=inherit;overflow=hidden;fillColor=none;top=0;left=0;bottom=0;right=0;pointerEvents=1;fontSize=11;container=1;movable=1;resizable=1;rotatable=1;deletable=1;editable=1;locked=0;" vertex="1" parent="zNFJ4cj6PXObmbsLO68b-120">
          <mxGeometry x="93" width="245" height="58" as="geometry">
            <mxRectangle width="245" height="58" as="alternateBounds" />
          </mxGeometry>
        </mxCell>
        <mxCell id="zNFJ4cj6PXObmbsLO68b-125" value="&lt;span style=&quot;caret-color: rgb(0, 0, 0); color: rgb(0, 0, 0); font-family: Helvetica; font-size: 11px; font-style: normal; font-variant-caps: normal; font-weight: 400; letter-spacing: normal; orphans: auto; text-align: center; text-indent: 0px; text-transform: none; white-space: normal; widows: auto; word-spacing: 0px; -webkit-text-stroke-width: 0px; background-color: rgb(251, 251, 251); text-decoration: none; display: inline !important; float: none;&quot;&gt;Body&lt;/span&gt;" style="shape=partialRectangle;html=1;whiteSpace=wrap;connectable=0;strokeColor=inherit;overflow=hidden;fillColor=none;top=0;left=0;bottom=0;right=0;pointerEvents=1;fontSize=11;" vertex="1" parent="zNFJ4cj6PXObmbsLO68b-120">
          <mxGeometry x="338" width="95" height="58" as="geometry">
            <mxRectangle width="95" height="58" as="alternateBounds" />
          </mxGeometry>
        </mxCell>
        <mxCell id="zNFJ4cj6PXObmbsLO68b-126" value="srting" style="shape=partialRectangle;html=1;whiteSpace=wrap;connectable=0;strokeColor=inherit;overflow=hidden;fillColor=none;top=0;left=0;bottom=0;right=0;pointerEvents=1;fontSize=11;" vertex="1" parent="zNFJ4cj6PXObmbsLO68b-120">
          <mxGeometry x="433" width="101" height="58" as="geometry">
            <mxRectangle width="101" height="58" as="alternateBounds" />
          </mxGeometry>
        </mxCell>
        <mxCell id="zNFJ4cj6PXObmbsLO68b-127" value="&lt;span style=&quot;caret-color: rgb(0, 0, 0); color: rgb(0, 0, 0); font-family: Helvetica; font-size: 11px; font-style: normal; font-variant-caps: normal; font-weight: 400; letter-spacing: normal; orphans: auto; text-align: center; text-indent: 0px; text-transform: none; white-space: normal; widows: auto; word-spacing: 0px; -webkit-text-stroke-width: 0px; background-color: rgb(251, 251, 251); text-decoration: none; display: inline !important; float: none;&quot;&gt;Цветовая схема&lt;/span&gt;" style="shape=partialRectangle;html=1;whiteSpace=wrap;connectable=0;strokeColor=inherit;overflow=hidden;fillColor=none;top=0;left=0;bottom=0;right=0;pointerEvents=1;fontSize=11;" vertex="1" parent="zNFJ4cj6PXObmbsLO68b-120">
          <mxGeometry x="534" width="112" height="58" as="geometry">
            <mxRectangle width="112" height="58" as="alternateBounds" />
          </mxGeometry>
        </mxCell>
        <mxCell id="zNFJ4cj6PXObmbsLO68b-128" value="да" style="shape=partialRectangle;html=1;whiteSpace=wrap;connectable=0;strokeColor=inherit;overflow=hidden;fillColor=none;top=0;left=0;bottom=0;right=0;pointerEvents=1;fontSize=11;" vertex="1" parent="zNFJ4cj6PXObmbsLO68b-120">
          <mxGeometry x="646" width="93" height="58" as="geometry">
            <mxRectangle width="93" height="58" as="alternateBounds" />
          </mxGeometry>
        </mxCell>
        <mxCell id="zNFJ4cj6PXObmbsLO68b-129" value="POST /widgets/settings - добавление виджета на экран пользователя" style="text;html=1;align=left;verticalAlign=middle;whiteSpace=wrap;rounded=0;fontStyle=1;fontSize=16;" vertex="1" parent="1">
          <mxGeometry x="37" y="990" width="693" height="30" as="geometry" />
        </mxCell>
        <mxCell id="zNFJ4cj6PXObmbsLO68b-130" value="&lt;span style=&quot;caret-color: rgba(0, 0, 0, 0); color: rgba(0, 0, 0, 0); font-family: monospace; font-size: 0px; text-align: start;&quot;&gt;%3CmxGraphModel%3E%3Croot%3E%3CmxCell%20id%3D%220%22%2F%3E%3CmxCell%20id%3D%221%22%20parent%3D%220%22%2F%3E%3CmxCell%20id%3D%222%22%20value%3D%22Request%22%20style%3D%22shape%3Dtable%3BstartSize%3D30%3Bcontainer%3D1%3Bcollapsible%3D0%3BchildLayout%3DtableLayout%3BstrokeColor%3Ddefault%3BfontSize%3D13%3B%22%20vertex%3D%221%22%20parent%3D%221%22%3E%3CmxGeometry%20x%3D%22217%22%20y%3D%22510%22%20width%3D%22620%22%20height%3D%22114%22%20as%3D%22geometry%22%2F%3E%3C%2FmxCell%3E%3CmxCell%20id%3D%223%22%20style%3D%22shape%3DtableRow%3Bhorizontal%3D0%3BstartSize%3D0%3BswimlaneHead%3D0%3BswimlaneBody%3D0%3BstrokeColor%3Dinherit%3Btop%3D0%3Bleft%3D0%3Bbottom%3D0%3Bright%3D0%3Bcollapsible%3D0%3BdropTarget%3D0%3BfillColor%3Dnone%3Bpoints%3D%5B%5B0%2C0.5%5D%2C%5B1%2C0.5%5D%5D%3BportConstraint%3Deastwest%3BfontSize%3D16%3B%22%20vertex%3D%221%22%20parent%3D%222%22%3E%3CmxGeometry%20y%3D%2230%22%20width%3D%22620%22%20height%3D%2242%22%20as%3D%22geometry%22%2F%3E%3C%2FmxCell%3E%3CmxCell%20id%3D%224%22%20value%3D%22%D0%9D%D0%B0%D0%B7%D0%B2%D0%B0%D0%BD%D0%B8%D0%B5%20%D0%BF%D0%B0%D1%80%D0%B0%D0%BC%D0%B5%D1%82%D1%80%D0%B0%22%20style%3D%22shape%3DpartialRectangle%3Bhtml%3D1%3BwhiteSpace%3Dwrap%3Bconnectable%3D0%3BstrokeColor%3Dinherit%3Boverflow%3Dhidden%3BfillColor%3Dnone%3Btop%3D0%3Bleft%3D0%3Bbottom%3D0%3Bright%3D0%3BpointerEvents%3D1%3BfontSize%3D11%3B%22%20vertex%3D%221%22%20parent%3D%223%22%3E%3CmxGeometry%20width%3D%22124%22%20height%3D%2242%22%20as%3D%22geometry%22%3E%3CmxRectangle%20width%3D%22124%22%20height%3D%2242%22%20as%3D%22alternateBounds%22%2F%3E%3C%2FmxGeometry%3E%3C%2FmxCell%3E%3CmxCell%20id%3D%225%22%20value%3D%22%D0%A2%D0%B8%D0%BF%20%D0%BF%D0%B0%D1%80%D0%B0%D0%BC%D0%B5%D1%82%D1%80%D0%B0%22%20style%3D%22shape%3DpartialRectangle%3Bhtml%3D1%3BwhiteSpace%3Dwrap%3Bconnectable%3D0%3BstrokeColor%3Dinherit%3Boverflow%3Dhidden%3BfillColor%3Dnone%3Btop%3D0%3Bleft%3D0%3Bbottom%3D0%3Bright%3D0%3BpointerEvents%3D1%3BfontSize%3D11%3B%22%20vertex%3D%221%22%20parent%3D%223%22%3E%3CmxGeometry%20x%3D%22124%22%20width%3D%22124%22%20height%3D%2242%22%20as%3D%22geometry%22%3E%3CmxRectangle%20width%3D%22124%22%20height%3D%2242%22%20as%3D%22alternateBounds%22%2F%3E%3C%2FmxGeometry%3E%3C%2FmxCell%3E%3CmxCell%20id%3D%226%22%20value%3D%22%D0%A2%D0%B8%D0%BF%20%D0%B4%D0%B0%D0%BD%D0%BD%D1%8B%D1%85%22%20style%3D%22shape%3DpartialRectangle%3Bhtml%3D1%3BwhiteSpace%3Dwrap%3Bconnectable%3D0%3BstrokeColor%3Dinherit%3Boverflow%3Dhidden%3BfillColor%3Dnone%3Btop%3D0%3Bleft%3D0%3Bbottom%3D0%3Bright%3D0%3BpointerEvents%3D1%3BfontSize%3D11%3B%22%20vertex%3D%221%22%20parent%3D%223%22%3E%3CmxGeometry%20x%3D%22248%22%20width%3D%22124%22%20height%3D%2242%22%20as%3D%22geometry%22%3E%3CmxRectangle%20width%3D%22124%22%20height%3D%2242%22%20as%3D%22alternateBounds%22%2F%3E%3C%2FmxGeometry%3E%3C%2FmxCell%3E%3CmxCell%20id%3D%227%22%20value%3D%22%D0%9E%D0%BF%D0%B8%D1%81%D0%B0%D0%BD%D0%B8%D0%B5%26amp%3Bnbsp%3B%22%20style%3D%22shape%3DpartialRectangle%3Bhtml%3D1%3BwhiteSpace%3Dwrap%3Bconnectable%3D0%3BstrokeColor%3Dinherit%3Boverflow%3Dhidden%3BfillColor%3Dnone%3Btop%3D0%3Bleft%3D0%3Bbottom%3D0%3Bright%3D0%3BpointerEvents%3D1%3BfontSize%3D11%3B%22%20vertex%3D%221%22%20parent%3D%223%22%3E%3CmxGeometry%20x%3D%22372%22%20width%3D%22124%22%20height%3D%2242%22%20as%3D%22geometry%22%3E%3CmxRectangle%20width%3D%22124%22%20height%3D%2242%22%20as%3D%22alternateBounds%22%2F%3E%3C%2FmxGeometry%3E%3C%2FmxCell%3E%3CmxCell%20id%3D%228%22%20value%3D%22%D0%9E%D0%B1%D1%8F%D0%B7%D0%B0%D1%82%D0%B5%D0%BB%D1%8C%D0%BD%D0%BE%D1%81%D1%82%D1%8C%20%D0%BF%D0%B0%D1%80%D0%B0%D0%BC%D0%B5%D1%82%D1%80%D0%B0%22%20style%3D%22shape%3DpartialRectangle%3Bhtml%3D1%3BwhiteSpace%3Dwrap%3Bconnectable%3D0%3BstrokeColor%3Dinherit%3Boverflow%3Dhidden%3BfillColor%3Dnone%3Btop%3D0%3Bleft%3D0%3Bbottom%3D0%3Bright%3D0%3BpointerEvents%3D1%3BfontSize%3D11%3B%22%20vertex%3D%221%22%20parent%3D%223%22%3E%3CmxGeometry%20x%3D%22496%22%20width%3D%22124%22%20height%3D%2242%22%20as%3D%22geometry%22%3E%3CmxRectangle%20width%3D%22124%22%20height%3D%2242%22%20as%3D%22alternateBounds%22%2F%3E%3C%2FmxGeometry%3E%3C%2FmxCell%3E%3CmxCell%20id%3D%229%22%20value%3D%22%22%20style%3D%22shape%3DtableRow%3Bhorizontal%3D0%3BstartSize%3D0%3BswimlaneHead%3D0%3BswimlaneBody%3D0%3BstrokeColor%3Dinherit%3Btop%3D0%3Bleft%3D0%3Bbottom%3D0%3Bright%3D0%3Bcollapsible%3D0%3BdropTarget%3D0%3BfillColor%3Dnone%3Bpoints%3D%5B%5B0%2C0.5%5D%2C%5B1%2C0.5%5D%5D%3BportConstraint%3Deastwest%3BfontSize%3D16%3B%22%20vertex%3D%221%22%20parent%3D%222%22%3E%3CmxGeometry%20y%3D%2272%22%20width%3D%22620%22%20height%3D%2242%22%20as%3D%22geometry%22%2F%3E%3C%2FmxCell%3E%3CmxCell%20id%3D%2210%22%20value%3D%22UserID%22%20style%3D%22shape%3DpartialRectangle%3Bhtml%3D1%3BwhiteSpace%3Dwrap%3Bconnectable%3D0%3BstrokeColor%3Dinherit%3Boverflow%3Dhidden%3BfillColor%3Dnone%3Btop%3D0%3Bleft%3D0%3Bbottom%3D0%3Bright%3D0%3BpointerEvents%3D1%3BfontSize%3D11%3B%22%20vertex%3D%221%22%20parent%3D%229%22%3E%3CmxGeometry%20width%3D%22124%22%20height%3D%2242%22%20as%3D%22geometry%22%3E%3CmxRectangle%20width%3D%22124%22%20height%3D%2242%22%20as%3D%22alternateBounds%22%2F%3E%3C%2FmxGeometry%3E%3C%2FmxCell%3E%3CmxCell%20id%3D%2211%22%20value%3D%22Header%22%20style%3D%22shape%3DpartialRectangle%3Bhtml%3D1%3BwhiteSpace%3Dwrap%3Bconnectable%3D0%3BstrokeColor%3Dinherit%3Boverflow%3Dhidden%3BfillColor%3Dnone%3Btop%3D0%3Bleft%3D0%3Bbottom%3D0%3Bright%3D0%3BpointerEvents%3D1%3BfontSize%3D11%3B%22%20vertex%3D%221%22%20parent%3D%229%22%3E%3CmxGeometry%20x%3D%22124%22%20width%3D%22124%22%20height%3D%2242%22%20as%3D%22geometry%22%3E%3CmxRectangle%20width%3D%22124%22%20height%3D%2242%22%20as%3D%22alternateBounds%22%2F%3E%3C%2FmxGeometry%3E%3C%2FmxCell%3E%3CmxCell%20id%3D%2212%22%20value%3D%22INT%22%20style%3D%22shape%3DpartialRectangle%3Bhtml%3D1%3BwhiteSpace%3Dwrap%3Bconnectable%3D0%3BstrokeColor%3Dinherit%3Boverflow%3Dhidden%3BfillColor%3Dnone%3Btop%3D0%3Bleft%3D0%3Bbottom%3D0%3Bright%3D0%3BpointerEvents%3D1%3BfontSize%3D11%3B%22%20vertex%3D%221%22%20parent%3D%229%22%3E%3CmxGeometry%20x%3D%22248%22%20width%3D%22124%22%20height%3D%2242%22%20as%3D%22geometry%22%3E%3CmxRectangle%20width%3D%22124%22%20height%3D%2242%22%20as%3D%22alternateBounds%22%2F%3E%3C%2FmxGeometry%3E%3C%2FmxCell%3E%3CmxCell%20id%3D%2213%22%20value%3D%22%D0%A3%D0%BD%D0%B8%D0%BA%D0%B0%D0%BB%D1%8C%D0%BD%D1%8B%D0%B9%20%D0%B8%D0%B4%D0%B5%D0%BD%D1%82%D0%B8%D1%84%D0%B8%D0%BA%D0%B0%D1%82%D0%BE%D1%80%20%D0%BF%D0%BE%D0%BB%D1%8C%D0%B7%D0%BE%D0%B2%D0%B0%D1%82%D0%B5%D0%BB%D1%8F%22%20style%3D%22shape%3DpartialRectangle%3Bhtml%3D1%3BwhiteSpace%3Dwrap%3Bconnectable%3D0%3BstrokeColor%3Dinherit%3Boverflow%3Dhidden%3BfillColor%3Dnone%3Btop%3D0%3Bleft%3D0%3Bbottom%3D0%3Bright%3D0%3BpointerEvents%3D1%3BfontSize%3D11%3B%22%20vertex%3D%221%22%20parent%3D%229%22%3E%3CmxGeometry%20x%3D%22372%22%20width%3D%22124%22%20height%3D%2242%22%20as%3D%22geometry%22%3E%3CmxRectangle%20width%3D%22124%22%20height%3D%2242%22%20as%3D%22alternateBounds%22%2F%3E%3C%2FmxGeometry%3E%3C%2FmxCell%3E%3CmxCell%20id%3D%2214%22%20value%3D%22%D0%94%D0%B0%22%20style%3D%22shape%3DpartialRectangle%3Bhtml%3D1%3BwhiteSpace%3Dwrap%3Bconnectable%3D0%3BstrokeColor%3Dinherit%3Boverflow%3Dhidden%3BfillColor%3Dnone%3Btop%3D0%3Bleft%3D0%3Bbottom%3D0%3Bright%3D0%3BpointerEvents%3D1%3BfontSize%3D11%3B%22%20vertex%3D%221%22%20parent%3D%229%22%3E%3CmxGeometry%20x%3D%22496%22%20width%3D%22124%22%20height%3D%2242%22%20as%3D%22geometry%22%3E%3CmxRectangle%20width%3D%22124%22%20height%3D%2242%22%20as%3D%22alternateBounds%22%2F%3E%3C%2FmxGeometry%3E%3C%2FmxCell%3E%3C%2Froot%3E%3C%2FmxGraphModel%3E&lt;/span&gt;&lt;span style=&quot;caret-color: rgba(0, 0, 0, 0); color: rgba(0, 0, 0, 0); font-family: monospace; font-size: 0px; text-align: start;&quot;&gt;%3CmxGraphModel%3E%3Croot%3E%3CmxCell%20id%3D%220%22%2F%3E%3CmxCell%20id%3D%221%22%20parent%3D%220%22%2F%3E%3CmxCell%20id%3D%222%22%20value%3D%22Request%22%20style%3D%22shape%3Dtable%3BstartSize%3D30%3Bcontainer%3D1%3Bcollapsible%3D0%3BchildLayout%3DtableLayout%3BstrokeColor%3Ddefault%3BfontSize%3D13%3B%22%20vertex%3D%221%22%20parent%3D%221%22%3E%3CmxGeometry%20x%3D%22217%22%20y%3D%22510%22%20width%3D%22620%22%20height%3D%22114%22%20as%3D%22geometry%22%2F%3E%3C%2FmxCell%3E%3CmxCell%20id%3D%223%22%20style%3D%22shape%3DtableRow%3Bhorizontal%3D0%3BstartSize%3D0%3BswimlaneHead%3D0%3BswimlaneBody%3D0%3BstrokeColor%3Dinherit%3Btop%3D0%3Bleft%3D0%3Bbottom%3D0%3Bright%3D0%3Bcollapsible%3D0%3BdropTarget%3D0%3BfillColor%3Dnone%3Bpoints%3D%5B%5B0%2C0.5%5D%2C%5B1%2C0.5%5D%5D%3BportConstraint%3Deastwest%3BfontSize%3D16%3B%22%20vertex%3D%221%22%20parent%3D%222%22%3E%3CmxGeometry%20y%3D%2230%22%20width%3D%22620%22%20height%3D%2242%22%20as%3D%22geometry%22%2F%3E%3C%2FmxCell%3E%3CmxCell%20id%3D%224%22%20value%3D%22%D0%9D%D0%B0%D0%B7%D0%B2%D0%B0%D0%BD%D0%B8%D0%B5%20%D0%BF%D0%B0%D1%80%D0%B0%D0%BC%D0%B5%D1%82%D1%80%D0%B0%22%20style%3D%22shape%3DpartialRectangle%3Bhtml%3D1%3BwhiteSpace%3Dwrap%3Bconnectable%3D0%3BstrokeColor%3Dinherit%3Boverflow%3Dhidden%3BfillColor%3Dnone%3Btop%3D0%3Bleft%3D0%3Bbottom%3D0%3Bright%3D0%3BpointerEvents%3D1%3BfontSize%3D11%3B%22%20vertex%3D%221%22%20parent%3D%223%22%3E%3CmxGeometry%20width%3D%22124%22%20height%3D%2242%22%20as%3D%22geometry%22%3E%3CmxRectangle%20width%3D%22124%22%20height%3D%2242%22%20as%3D%22alternateBounds%22%2F%3E%3C%2FmxGeometry%3E%3C%2FmxCell%3E%3CmxCell%20id%3D%225%22%20value%3D%22%D0%A2%D0%B8%D0%BF%20%D0%BF%D0%B0%D1%80%D0%B0%D0%BC%D0%B5%D1%82%D1%80%D0%B0%22%20style%3D%22shape%3DpartialRectangle%3Bhtml%3D1%3BwhiteSpace%3Dwrap%3Bconnectable%3D0%3BstrokeColor%3Dinherit%3Boverflow%3Dhidden%3BfillColor%3Dnone%3Btop%3D0%3Bleft%3D0%3Bbottom%3D0%3Bright%3D0%3BpointerEvents%3D1%3BfontSize%3D11%3B%22%20vertex%3D%221%22%20parent%3D%223%22%3E%3CmxGeometry%20x%3D%22124%22%20width%3D%22124%22%20height%3D%2242%22%20as%3D%22geometry%22%3E%3CmxRectangle%20width%3D%22124%22%20height%3D%2242%22%20as%3D%22alternateBounds%22%2F%3E%3C%2FmxGeometry%3E%3C%2FmxCell%3E%3CmxCell%20id%3D%226%22%20value%3D%22%D0%A2%D0%B8%D0%BF%20%D0%B4%D0%B0%D0%BD%D0%BD%D1%8B%D1%85%22%20style%3D%22shape%3DpartialRectangle%3Bhtml%3D1%3BwhiteSpace%3Dwrap%3Bconnectable%3D0%3BstrokeColor%3Dinherit%3Boverflow%3Dhidden%3BfillColor%3Dnone%3Btop%3D0%3Bleft%3D0%3Bbottom%3D0%3Bright%3D0%3BpointerEvents%3D1%3BfontSize%3D11%3B%22%20vertex%3D%221%22%20parent%3D%223%22%3E%3CmxGeometry%20x%3D%22248%22%20width%3D%22124%22%20height%3D%2242%22%20as%3D%22geometry%22%3E%3CmxRectangle%20width%3D%22124%22%20height%3D%2242%22%20as%3D%22alternateBounds%22%2F%3E%3C%2FmxGeometry%3E%3C%2FmxCell%3E%3CmxCell%20id%3D%227%22%20value%3D%22%D0%9E%D0%BF%D0%B8%D1%81%D0%B0%D0%BD%D0%B8%D0%B5%26amp%3Bnbsp%3B%22%20style%3D%22shape%3DpartialRectangle%3Bhtml%3D1%3BwhiteSpace%3Dwrap%3Bconnectable%3D0%3BstrokeColor%3Dinherit%3Boverflow%3Dhidden%3BfillColor%3Dnone%3Btop%3D0%3Bleft%3D0%3Bbottom%3D0%3Bright%3D0%3BpointerEvents%3D1%3BfontSize%3D11%3B%22%20vertex%3D%221%22%20parent%3D%223%22%3E%3CmxGeometry%20x%3D%22372%22%20width%3D%22124%22%20height%3D%2242%22%20as%3D%22geometry%22%3E%3CmxRectangle%20width%3D%22124%22%20height%3D%2242%22%20as%3D%22alternateBounds%22%2F%3E%3C%2FmxGeometry%3E%3C%2FmxCell%3E%3CmxCell%20id%3D%228%22%20value%3D%22%D0%9E%D0%B1%D1%8F%D0%B7%D0%B0%D1%82%D0%B5%D0%BB%D1%8C%D0%BD%D0%BE%D1%81%D1%82%D1%8C%20%D0%BF%D0%B0%D1%80%D0%B0%D0%BC%D0%B5%D1%82%D1%80%D0%B0%22%20style%3D%22shape%3DpartialRectangle%3Bhtml%3D1%3BwhiteSpace%3Dwrap%3Bconnectable%3D0%3BstrokeColor%3Dinherit%3Boverflow%3Dhidden%3BfillColor%3Dnone%3Btop%3D0%3Bleft%3D0%3Bbottom%3D0%3Bright%3D0%3BpointerEvents%3D1%3BfontSize%3D11%3B%22%20vertex%3D%221%22%20parent%3D%223%22%3E%3CmxGeometry%20x%3D%22496%22%20width%3D%22124%22%20height%3D%2242%22%20as%3D%22geometry%22%3E%3CmxRectangle%20width%3D%22124%22%20height%3D%2242%22%20as%3D%22alternateBounds%22%2F%3E%3C%2FmxGeometry%3E%3C%2FmxCell%3E%3CmxCell%20id%3D%229%22%20value%3D%22%22%20style%3D%22shape%3DtableRow%3Bhorizontal%3D0%3BstartSize%3D0%3BswimlaneHead%3D0%3BswimlaneBody%3D0%3BstrokeColor%3Dinherit%3Btop%3D0%3Bleft%3D0%3Bbottom%3D0%3Bright%3D0%3Bcollapsible%3D0%3BdropTarget%3D0%3BfillColor%3Dnone%3Bpoints%3D%5B%5B0%2C0.5%5D%2C%5B1%2C0.5%5D%5D%3BportConstraint%3Deastwest%3BfontSize%3D16%3B%22%20vertex%3D%221%22%20parent%3D%222%22%3E%3CmxGeometry%20y%3D%2272%22%20width%3D%22620%22%20height%3D%2242%22%20as%3D%22geometry%22%2F%3E%3C%2FmxCell%3E%3CmxCell%20id%3D%2210%22%20value%3D%22UserID%22%20style%3D%22shape%3DpartialRectangle%3Bhtml%3D1%3BwhiteSpace%3Dwrap%3Bconnectable%3D0%3BstrokeColor%3Dinherit%3Boverflow%3Dhidden%3BfillColor%3Dnone%3Btop%3D0%3Bleft%3D0%3Bbottom%3D0%3Bright%3D0%3BpointerEvents%3D1%3BfontSize%3D11%3B%22%20vertex%3D%221%22%20parent%3D%229%22%3E%3CmxGeometry%20width%3D%22124%22%20height%3D%2242%22%20as%3D%22geometry%22%3E%3CmxRectangle%20width%3D%22124%22%20height%3D%2242%22%20as%3D%22alternateBounds%22%2F%3E%3C%2FmxGeometry%3E%3C%2FmxCell%3E%3CmxCell%20id%3D%2211%22%20value%3D%22Header%22%20style%3D%22shape%3DpartialRectangle%3Bhtml%3D1%3BwhiteSpace%3Dwrap%3Bconnectable%3D0%3BstrokeColor%3Dinherit%3Boverflow%3Dhidden%3BfillColor%3Dnone%3Btop%3D0%3Bleft%3D0%3Bbottom%3D0%3Bright%3D0%3BpointerEvents%3D1%3BfontSize%3D11%3B%22%20vertex%3D%221%22%20parent%3D%229%22%3E%3CmxGeometry%20x%3D%22124%22%20width%3D%22124%22%20height%3D%2242%22%20as%3D%22geometry%22%3E%3CmxRectangle%20width%3D%22124%22%20height%3D%2242%22%20as%3D%22alternateBounds%22%2F%3E%3C%2FmxGeometry%3E%3C%2FmxCell%3E%3CmxCell%20id%3D%2212%22%20value%3D%22INT%22%20style%3D%22shape%3DpartialRectangle%3Bhtml%3D1%3BwhiteSpace%3Dwrap%3Bconnectable%3D0%3BstrokeColor%3Dinherit%3Boverflow%3Dhidden%3BfillColor%3Dnone%3Btop%3D0%3Bleft%3D0%3Bbottom%3D0%3Bright%3D0%3BpointerEvents%3D1%3BfontSize%3D11%3B%22%20vertex%3D%221%22%20parent%3D%229%22%3E%3CmxGeometry%20x%3D%22248%22%20width%3D%22124%22%20height%3D%2242%22%20as%3D%22geometry%22%3E%3CmxRectangle%20width%3D%22124%22%20height%3D%2242%22%20as%3D%22alternateBounds%22%2F%3E%3C%2FmxGeometry%3E%3C%2FmxCell%3E%3CmxCell%20id%3D%2213%22%20value%3D%22%D0%A3%D0%BD%D0%B8%D0%BA%D0%B0%D0%BB%D1%8C%D0%BD%D1%8B%D0%B9%20%D0%B8%D0%B4%D0%B5%D0%BD%D1%82%D0%B8%D1%84%D0%B8%D0%BA%D0%B0%D1%82%D0%BE%D1%80%20%D0%BF%D0%BE%D0%BB%D1%8C%D0%B7%D0%BE%D0%B2%D0%B0%D1%82%D0%B5%D0%BB%D1%8F%22%20style%3D%22shape%3DpartialRectangle%3Bhtml%3D1%3BwhiteSpace%3Dwrap%3Bconnectable%3D0%3BstrokeColor%3Dinherit%3Boverflow%3Dhidden%3BfillColor%3Dnone%3Btop%3D0%3Bleft%3D0%3Bbottom%3D0%3Bright%3D0%3BpointerEvents%3D1%3BfontSize%3D11%3B%22%20vertex%3D%221%22%20parent%3D%229%22%3E%3CmxGeometry%20x%3D%22372%22%20width%3D%22124%22%20height%3D%2242%22%20as%3D%22geometry%22%3E%3CmxRectangle%20width%3D%22124%22%20height%3D%2242%22%20as%3D%22alternateBounds%22%2F%3E%3C%2FmxGeometry%3E%3C%2FmxCell%3E%3CmxCell%20id%3D%2214%22%20value%3D%22%D0%94%D0%B0%22%20style%3D%22shape%3DpartialRectangle%3Bhtml%3D1%3BwhiteSpace%3Dwrap%3Bconnectable%3D0%3BstrokeColor%3Dinherit%3Boverflow%3Dhidden%3BfillColor%3Dnone%3Btop%3D0%3Bleft%3D0%3Bbottom%3D0%3Bright%3D0%3BpointerEvents%3D1%3BfontSize%3D11%3B%22%20vertex%3D%221%22%20parent%3D%229%22%3E%3CmxGeometry%20x%3D%22496%22%20width%3D%22124%22%20height%3D%2242%22%20as%3D%22geometry%22%3E%3CmxRectangle%20width%3D%22124%22%20height%3D%2242%22%20as%3D%22alternateBounds%22%2F%3E%3C%2FmxGeometry%3E%3C%2FmxCell%3E%3C%2Froot%3E%3C%2FmxGraphModel%3E&lt;/span&gt;" style="text;html=1;align=center;verticalAlign=middle;resizable=0;points=[];autosize=1;strokeColor=none;fillColor=none;" vertex="1" parent="1">
          <mxGeometry x="130" y="1137" width="20" height="30" as="geometry" />
        </mxCell>
        <mxCell id="zNFJ4cj6PXObmbsLO68b-131" value="&lt;b&gt;Code 200 - Сервер возвращает виджеты на начальном экране с их наполнением - информаций,которые до этого выбрал пользователь&lt;/b&gt;" style="text;html=1;align=center;verticalAlign=middle;whiteSpace=wrap;rounded=0;" vertex="1" parent="1">
          <mxGeometry x="37" y="130" width="650" height="30" as="geometry" />
        </mxCell>
        <mxCell id="zNFJ4cj6PXObmbsLO68b-132" value="REST. Табличный вид" style="text;html=1;align=center;verticalAlign=middle;whiteSpace=wrap;rounded=0;fontSize=20;fontStyle=1" vertex="1" parent="1">
          <mxGeometry x="37" y="30" width="223" height="30" as="geometry" />
        </mxCell>
        <mxCell id="zNFJ4cj6PXObmbsLO68b-133" value="Request" style="shape=table;startSize=30;container=1;collapsible=0;childLayout=tableLayout;strokeColor=default;fontSize=13;" vertex="1" parent="1">
          <mxGeometry x="37" y="1040" width="743" height="449" as="geometry" />
        </mxCell>
        <mxCell id="zNFJ4cj6PXObmbsLO68b-134" style="shape=tableRow;horizontal=0;startSize=0;swimlaneHead=0;swimlaneBody=0;strokeColor=inherit;top=0;left=0;bottom=0;right=0;collapsible=0;dropTarget=0;fillColor=none;points=[[0,0.5],[1,0.5]];portConstraint=eastwest;fontSize=16;" vertex="1" parent="zNFJ4cj6PXObmbsLO68b-133">
          <mxGeometry y="30" width="743" height="39" as="geometry" />
        </mxCell>
        <mxCell id="zNFJ4cj6PXObmbsLO68b-135" value="Название параметра" style="shape=partialRectangle;html=1;whiteSpace=wrap;connectable=0;strokeColor=inherit;overflow=hidden;fillColor=none;top=0;left=0;bottom=0;right=0;pointerEvents=1;fontSize=11;rowspan=1;colspan=3;" vertex="1" parent="zNFJ4cj6PXObmbsLO68b-134">
          <mxGeometry width="293" height="39" as="geometry">
            <mxRectangle width="33" height="39" as="alternateBounds" />
          </mxGeometry>
        </mxCell>
        <mxCell id="zNFJ4cj6PXObmbsLO68b-136" style="shape=partialRectangle;html=1;whiteSpace=wrap;connectable=0;strokeColor=inherit;overflow=hidden;fillColor=none;top=0;left=0;bottom=0;right=0;pointerEvents=1;fontSize=11;" vertex="1" visible="0" parent="zNFJ4cj6PXObmbsLO68b-134">
          <mxGeometry x="33" width="37" height="39" as="geometry">
            <mxRectangle width="37" height="39" as="alternateBounds" />
          </mxGeometry>
        </mxCell>
        <mxCell id="zNFJ4cj6PXObmbsLO68b-137" value="Название параметра" style="shape=partialRectangle;html=1;whiteSpace=wrap;connectable=0;strokeColor=inherit;overflow=hidden;fillColor=none;top=0;left=0;bottom=0;right=0;pointerEvents=1;fontSize=11;" vertex="1" visible="0" parent="zNFJ4cj6PXObmbsLO68b-134">
          <mxGeometry x="70" width="223" height="39" as="geometry">
            <mxRectangle width="223" height="39" as="alternateBounds" />
          </mxGeometry>
        </mxCell>
        <mxCell id="zNFJ4cj6PXObmbsLO68b-138" value="Тип параметра" style="shape=partialRectangle;html=1;whiteSpace=wrap;connectable=0;strokeColor=inherit;overflow=hidden;fillColor=none;top=0;left=0;bottom=0;right=0;pointerEvents=1;fontSize=11;" vertex="1" parent="zNFJ4cj6PXObmbsLO68b-134">
          <mxGeometry x="293" width="105" height="39" as="geometry">
            <mxRectangle width="105" height="39" as="alternateBounds" />
          </mxGeometry>
        </mxCell>
        <mxCell id="zNFJ4cj6PXObmbsLO68b-139" value="Тип данных" style="shape=partialRectangle;html=1;whiteSpace=wrap;connectable=0;strokeColor=inherit;overflow=hidden;fillColor=none;top=0;left=0;bottom=0;right=0;pointerEvents=1;fontSize=11;" vertex="1" parent="zNFJ4cj6PXObmbsLO68b-134">
          <mxGeometry x="398" width="99" height="39" as="geometry">
            <mxRectangle width="99" height="39" as="alternateBounds" />
          </mxGeometry>
        </mxCell>
        <mxCell id="zNFJ4cj6PXObmbsLO68b-140" value="Описание&amp;nbsp;" style="shape=partialRectangle;html=1;whiteSpace=wrap;connectable=0;strokeColor=inherit;overflow=hidden;fillColor=none;top=0;left=0;bottom=0;right=0;pointerEvents=1;fontSize=11;" vertex="1" parent="zNFJ4cj6PXObmbsLO68b-134">
          <mxGeometry x="497" width="113" height="39" as="geometry">
            <mxRectangle width="113" height="39" as="alternateBounds" />
          </mxGeometry>
        </mxCell>
        <mxCell id="zNFJ4cj6PXObmbsLO68b-141" value="Обязательность параметра" style="shape=partialRectangle;html=1;whiteSpace=wrap;connectable=0;strokeColor=inherit;overflow=hidden;fillColor=none;top=0;left=0;bottom=0;right=0;pointerEvents=1;fontSize=11;" vertex="1" parent="zNFJ4cj6PXObmbsLO68b-134">
          <mxGeometry x="610" width="133" height="39" as="geometry">
            <mxRectangle width="133" height="39" as="alternateBounds" />
          </mxGeometry>
        </mxCell>
        <mxCell id="zNFJ4cj6PXObmbsLO68b-142" value="" style="shape=tableRow;horizontal=0;startSize=0;swimlaneHead=0;swimlaneBody=0;strokeColor=inherit;top=0;left=0;bottom=0;right=0;collapsible=0;dropTarget=0;fillColor=none;points=[[0,0.5],[1,0.5]];portConstraint=eastwest;fontSize=16;" vertex="1" parent="zNFJ4cj6PXObmbsLO68b-133">
          <mxGeometry y="69" width="743" height="40" as="geometry" />
        </mxCell>
        <mxCell id="zNFJ4cj6PXObmbsLO68b-143" value="widget" style="shape=partialRectangle;html=1;whiteSpace=wrap;connectable=0;strokeColor=inherit;overflow=hidden;fillColor=none;top=0;left=0;bottom=0;right=0;pointerEvents=1;fontSize=11;rowspan=1;colspan=3;" vertex="1" parent="zNFJ4cj6PXObmbsLO68b-142">
          <mxGeometry width="293" height="40" as="geometry">
            <mxRectangle width="33" height="40" as="alternateBounds" />
          </mxGeometry>
        </mxCell>
        <mxCell id="zNFJ4cj6PXObmbsLO68b-144" style="shape=partialRectangle;html=1;whiteSpace=wrap;connectable=0;strokeColor=inherit;overflow=hidden;fillColor=none;top=0;left=0;bottom=0;right=0;pointerEvents=1;fontSize=11;" vertex="1" visible="0" parent="zNFJ4cj6PXObmbsLO68b-142">
          <mxGeometry x="33" width="37" height="40" as="geometry">
            <mxRectangle width="37" height="40" as="alternateBounds" />
          </mxGeometry>
        </mxCell>
        <mxCell id="zNFJ4cj6PXObmbsLO68b-145" value="Widgets" style="shape=partialRectangle;html=1;whiteSpace=wrap;connectable=0;strokeColor=inherit;overflow=hidden;fillColor=none;top=0;left=0;bottom=0;right=0;pointerEvents=1;fontSize=11;" vertex="1" visible="0" parent="zNFJ4cj6PXObmbsLO68b-142">
          <mxGeometry x="70" width="223" height="40" as="geometry">
            <mxRectangle width="223" height="40" as="alternateBounds" />
          </mxGeometry>
        </mxCell>
        <mxCell id="zNFJ4cj6PXObmbsLO68b-146" value="Body" style="shape=partialRectangle;html=1;whiteSpace=wrap;connectable=0;strokeColor=inherit;overflow=hidden;fillColor=none;top=0;left=0;bottom=0;right=0;pointerEvents=1;fontSize=11;" vertex="1" parent="zNFJ4cj6PXObmbsLO68b-142">
          <mxGeometry x="293" width="105" height="40" as="geometry">
            <mxRectangle width="105" height="40" as="alternateBounds" />
          </mxGeometry>
        </mxCell>
        <mxCell id="zNFJ4cj6PXObmbsLO68b-147" value="Object" style="shape=partialRectangle;html=1;whiteSpace=wrap;connectable=0;strokeColor=inherit;overflow=hidden;fillColor=none;top=0;left=0;bottom=0;right=0;pointerEvents=1;fontSize=11;" vertex="1" parent="zNFJ4cj6PXObmbsLO68b-142">
          <mxGeometry x="398" width="99" height="40" as="geometry">
            <mxRectangle width="99" height="40" as="alternateBounds" />
          </mxGeometry>
        </mxCell>
        <mxCell id="zNFJ4cj6PXObmbsLO68b-148" value="Объект виджета" style="shape=partialRectangle;html=1;whiteSpace=wrap;connectable=0;strokeColor=inherit;overflow=hidden;fillColor=none;top=0;left=0;bottom=0;right=0;pointerEvents=1;fontSize=11;" vertex="1" parent="zNFJ4cj6PXObmbsLO68b-142">
          <mxGeometry x="497" width="113" height="40" as="geometry">
            <mxRectangle width="113" height="40" as="alternateBounds" />
          </mxGeometry>
        </mxCell>
        <mxCell id="zNFJ4cj6PXObmbsLO68b-149" value="Да" style="shape=partialRectangle;html=1;whiteSpace=wrap;connectable=0;strokeColor=inherit;overflow=hidden;fillColor=none;top=0;left=0;bottom=0;right=0;pointerEvents=1;fontSize=11;" vertex="1" parent="zNFJ4cj6PXObmbsLO68b-142">
          <mxGeometry x="610" width="133" height="40" as="geometry">
            <mxRectangle width="133" height="40" as="alternateBounds" />
          </mxGeometry>
        </mxCell>
        <mxCell id="zNFJ4cj6PXObmbsLO68b-150" value="" style="shape=tableRow;horizontal=0;startSize=0;swimlaneHead=0;swimlaneBody=0;strokeColor=inherit;top=0;left=0;bottom=0;right=0;collapsible=0;dropTarget=0;fillColor=none;points=[[0,0.5],[1,0.5]];portConstraint=eastwest;fontSize=16;" vertex="1" parent="zNFJ4cj6PXObmbsLO68b-133">
          <mxGeometry y="109" width="743" height="41" as="geometry" />
        </mxCell>
        <mxCell id="zNFJ4cj6PXObmbsLO68b-151" style="shape=partialRectangle;html=1;whiteSpace=wrap;connectable=0;strokeColor=inherit;overflow=hidden;fillColor=none;top=0;left=0;bottom=0;right=0;pointerEvents=1;fontSize=11;" vertex="1" parent="zNFJ4cj6PXObmbsLO68b-150">
          <mxGeometry width="33" height="41" as="geometry">
            <mxRectangle width="33" height="41" as="alternateBounds" />
          </mxGeometry>
        </mxCell>
        <mxCell id="zNFJ4cj6PXObmbsLO68b-152" value="widgetID" style="shape=partialRectangle;html=1;whiteSpace=wrap;connectable=0;strokeColor=inherit;overflow=hidden;fillColor=none;top=0;left=0;bottom=0;right=0;pointerEvents=1;fontSize=11;rowspan=1;colspan=2;" vertex="1" parent="zNFJ4cj6PXObmbsLO68b-150">
          <mxGeometry x="33" width="260" height="41" as="geometry">
            <mxRectangle width="37" height="41" as="alternateBounds" />
          </mxGeometry>
        </mxCell>
        <mxCell id="zNFJ4cj6PXObmbsLO68b-153" value="WidgetID" style="shape=partialRectangle;html=1;whiteSpace=wrap;connectable=0;strokeColor=inherit;overflow=hidden;fillColor=none;top=0;left=0;bottom=0;right=0;pointerEvents=1;fontSize=11;" vertex="1" visible="0" parent="zNFJ4cj6PXObmbsLO68b-150">
          <mxGeometry x="70" width="223" height="41" as="geometry">
            <mxRectangle width="223" height="41" as="alternateBounds" />
          </mxGeometry>
        </mxCell>
        <mxCell id="zNFJ4cj6PXObmbsLO68b-154" value="&lt;span style=&quot;caret-color: rgb(0, 0, 0); color: rgb(0, 0, 0); font-family: Helvetica; font-size: 11px; font-style: normal; font-variant-caps: normal; font-weight: 400; letter-spacing: normal; orphans: auto; text-align: center; text-indent: 0px; text-transform: none; white-space: normal; widows: auto; word-spacing: 0px; -webkit-text-stroke-width: 0px; background-color: rgb(251, 251, 251); text-decoration: none; display: inline !important; float: none;&quot;&gt;Body&lt;/span&gt;" style="shape=partialRectangle;html=1;whiteSpace=wrap;connectable=0;strokeColor=inherit;overflow=hidden;fillColor=none;top=0;left=0;bottom=0;right=0;pointerEvents=1;fontSize=11;" vertex="1" parent="zNFJ4cj6PXObmbsLO68b-150">
          <mxGeometry x="293" width="105" height="41" as="geometry">
            <mxRectangle width="105" height="41" as="alternateBounds" />
          </mxGeometry>
        </mxCell>
        <mxCell id="zNFJ4cj6PXObmbsLO68b-155" value="Int" style="shape=partialRectangle;html=1;whiteSpace=wrap;connectable=0;strokeColor=inherit;overflow=hidden;fillColor=none;top=0;left=0;bottom=0;right=0;pointerEvents=1;fontSize=11;" vertex="1" parent="zNFJ4cj6PXObmbsLO68b-150">
          <mxGeometry x="398" width="99" height="41" as="geometry">
            <mxRectangle width="99" height="41" as="alternateBounds" />
          </mxGeometry>
        </mxCell>
        <mxCell id="zNFJ4cj6PXObmbsLO68b-156" value="Идентификатор виджета" style="shape=partialRectangle;html=1;whiteSpace=wrap;connectable=0;strokeColor=inherit;overflow=hidden;fillColor=none;top=0;left=0;bottom=0;right=0;pointerEvents=1;fontSize=11;" vertex="1" parent="zNFJ4cj6PXObmbsLO68b-150">
          <mxGeometry x="497" width="113" height="41" as="geometry">
            <mxRectangle width="113" height="41" as="alternateBounds" />
          </mxGeometry>
        </mxCell>
        <mxCell id="zNFJ4cj6PXObmbsLO68b-157" value="Да" style="shape=partialRectangle;html=1;whiteSpace=wrap;connectable=0;strokeColor=inherit;overflow=hidden;fillColor=none;top=0;left=0;bottom=0;right=0;pointerEvents=1;fontSize=11;" vertex="1" parent="zNFJ4cj6PXObmbsLO68b-150">
          <mxGeometry x="610" width="133" height="41" as="geometry">
            <mxRectangle width="133" height="41" as="alternateBounds" />
          </mxGeometry>
        </mxCell>
        <mxCell id="zNFJ4cj6PXObmbsLO68b-158" style="shape=tableRow;horizontal=0;startSize=0;swimlaneHead=0;swimlaneBody=0;strokeColor=inherit;top=0;left=0;bottom=0;right=0;collapsible=0;dropTarget=0;fillColor=none;points=[[0,0.5],[1,0.5]];portConstraint=eastwest;fontSize=16;" vertex="1" parent="zNFJ4cj6PXObmbsLO68b-133">
          <mxGeometry y="150" width="743" height="60" as="geometry" />
        </mxCell>
        <mxCell id="zNFJ4cj6PXObmbsLO68b-159" style="shape=partialRectangle;html=1;whiteSpace=wrap;connectable=0;strokeColor=inherit;overflow=hidden;fillColor=none;top=0;left=0;bottom=0;right=0;pointerEvents=1;fontSize=11;" vertex="1" parent="zNFJ4cj6PXObmbsLO68b-158">
          <mxGeometry width="33" height="60" as="geometry">
            <mxRectangle width="33" height="60" as="alternateBounds" />
          </mxGeometry>
        </mxCell>
        <mxCell id="zNFJ4cj6PXObmbsLO68b-160" value="settings" style="shape=partialRectangle;html=1;whiteSpace=wrap;connectable=0;strokeColor=inherit;overflow=hidden;fillColor=none;top=0;left=0;bottom=0;right=0;pointerEvents=1;fontSize=11;rowspan=1;colspan=2;" vertex="1" parent="zNFJ4cj6PXObmbsLO68b-158">
          <mxGeometry x="33" width="260" height="60" as="geometry">
            <mxRectangle width="37" height="60" as="alternateBounds" />
          </mxGeometry>
        </mxCell>
        <mxCell id="zNFJ4cj6PXObmbsLO68b-161" style="shape=partialRectangle;html=1;whiteSpace=wrap;connectable=0;strokeColor=inherit;overflow=hidden;fillColor=none;top=0;left=0;bottom=0;right=0;pointerEvents=1;fontSize=11;" vertex="1" visible="0" parent="zNFJ4cj6PXObmbsLO68b-158">
          <mxGeometry x="70" width="223" height="60" as="geometry">
            <mxRectangle width="223" height="60" as="alternateBounds" />
          </mxGeometry>
        </mxCell>
        <mxCell id="zNFJ4cj6PXObmbsLO68b-162" value="Body" style="shape=partialRectangle;html=1;whiteSpace=wrap;connectable=0;strokeColor=inherit;overflow=hidden;fillColor=none;top=0;left=0;bottom=0;right=0;pointerEvents=1;fontSize=11;" vertex="1" parent="zNFJ4cj6PXObmbsLO68b-158">
          <mxGeometry x="293" width="105" height="60" as="geometry">
            <mxRectangle width="105" height="60" as="alternateBounds" />
          </mxGeometry>
        </mxCell>
        <mxCell id="zNFJ4cj6PXObmbsLO68b-163" value="Object" style="shape=partialRectangle;html=1;whiteSpace=wrap;connectable=0;strokeColor=inherit;overflow=hidden;fillColor=none;top=0;left=0;bottom=0;right=0;pointerEvents=1;fontSize=11;" vertex="1" parent="zNFJ4cj6PXObmbsLO68b-158">
          <mxGeometry x="398" width="99" height="60" as="geometry">
            <mxRectangle width="99" height="60" as="alternateBounds" />
          </mxGeometry>
        </mxCell>
        <mxCell id="zNFJ4cj6PXObmbsLO68b-164" value="Объект персональных настроек виджета для пользователя" style="shape=partialRectangle;html=1;whiteSpace=wrap;connectable=0;strokeColor=inherit;overflow=hidden;fillColor=none;top=0;left=0;bottom=0;right=0;pointerEvents=1;fontSize=11;" vertex="1" parent="zNFJ4cj6PXObmbsLO68b-158">
          <mxGeometry x="497" width="113" height="60" as="geometry">
            <mxRectangle width="113" height="60" as="alternateBounds" />
          </mxGeometry>
        </mxCell>
        <mxCell id="zNFJ4cj6PXObmbsLO68b-165" value="Да" style="shape=partialRectangle;html=1;whiteSpace=wrap;connectable=0;strokeColor=inherit;overflow=hidden;fillColor=none;top=0;left=0;bottom=0;right=0;pointerEvents=1;fontSize=11;" vertex="1" parent="zNFJ4cj6PXObmbsLO68b-158">
          <mxGeometry x="610" width="133" height="60" as="geometry">
            <mxRectangle width="133" height="60" as="alternateBounds" />
          </mxGeometry>
        </mxCell>
        <mxCell id="zNFJ4cj6PXObmbsLO68b-166" style="shape=tableRow;horizontal=0;startSize=0;swimlaneHead=0;swimlaneBody=0;strokeColor=inherit;top=0;left=0;bottom=0;right=0;collapsible=0;dropTarget=0;fillColor=none;points=[[0,0.5],[1,0.5]];portConstraint=eastwest;fontSize=16;" vertex="1" parent="zNFJ4cj6PXObmbsLO68b-133">
          <mxGeometry y="210" width="743" height="39" as="geometry" />
        </mxCell>
        <mxCell id="zNFJ4cj6PXObmbsLO68b-167" style="shape=partialRectangle;html=1;whiteSpace=wrap;connectable=0;strokeColor=inherit;overflow=hidden;fillColor=none;top=0;left=0;bottom=0;right=0;pointerEvents=1;fontSize=11;" vertex="1" parent="zNFJ4cj6PXObmbsLO68b-166">
          <mxGeometry width="33" height="39" as="geometry">
            <mxRectangle width="33" height="39" as="alternateBounds" />
          </mxGeometry>
        </mxCell>
        <mxCell id="zNFJ4cj6PXObmbsLO68b-168" value="" style="shape=partialRectangle;html=1;whiteSpace=wrap;connectable=0;strokeColor=inherit;overflow=hidden;fillColor=none;top=0;left=0;bottom=0;right=0;pointerEvents=1;fontSize=11;" vertex="1" parent="zNFJ4cj6PXObmbsLO68b-166">
          <mxGeometry x="33" width="37" height="39" as="geometry">
            <mxRectangle width="37" height="39" as="alternateBounds" />
          </mxGeometry>
        </mxCell>
        <mxCell id="zNFJ4cj6PXObmbsLO68b-169" value="PosX" style="shape=partialRectangle;html=1;whiteSpace=wrap;connectable=0;strokeColor=inherit;overflow=hidden;fillColor=none;top=0;left=0;bottom=0;right=0;pointerEvents=1;fontSize=11;" vertex="1" parent="zNFJ4cj6PXObmbsLO68b-166">
          <mxGeometry x="70" width="223" height="39" as="geometry">
            <mxRectangle width="223" height="39" as="alternateBounds" />
          </mxGeometry>
        </mxCell>
        <mxCell id="zNFJ4cj6PXObmbsLO68b-170" value="&lt;span style=&quot;caret-color: rgb(0, 0, 0); color: rgb(0, 0, 0); font-family: Helvetica; font-size: 11px; font-style: normal; font-variant-caps: normal; font-weight: 400; letter-spacing: normal; orphans: auto; text-align: center; text-indent: 0px; text-transform: none; white-space: normal; widows: auto; word-spacing: 0px; -webkit-text-stroke-width: 0px; background-color: rgb(251, 251, 251); text-decoration: none; display: inline !important; float: none;&quot;&gt;Body&lt;/span&gt;" style="shape=partialRectangle;html=1;whiteSpace=wrap;connectable=0;strokeColor=inherit;overflow=hidden;fillColor=none;top=0;left=0;bottom=0;right=0;pointerEvents=1;fontSize=11;" vertex="1" parent="zNFJ4cj6PXObmbsLO68b-166">
          <mxGeometry x="293" width="105" height="39" as="geometry">
            <mxRectangle width="105" height="39" as="alternateBounds" />
          </mxGeometry>
        </mxCell>
        <mxCell id="zNFJ4cj6PXObmbsLO68b-171" value="Int" style="shape=partialRectangle;html=1;whiteSpace=wrap;connectable=0;strokeColor=inherit;overflow=hidden;fillColor=none;top=0;left=0;bottom=0;right=0;pointerEvents=1;fontSize=11;" vertex="1" parent="zNFJ4cj6PXObmbsLO68b-166">
          <mxGeometry x="398" width="99" height="39" as="geometry">
            <mxRectangle width="99" height="39" as="alternateBounds" />
          </mxGeometry>
        </mxCell>
        <mxCell id="zNFJ4cj6PXObmbsLO68b-172" value="Позиция Х" style="shape=partialRectangle;html=1;whiteSpace=wrap;connectable=0;strokeColor=inherit;overflow=hidden;fillColor=none;top=0;left=0;bottom=0;right=0;pointerEvents=1;fontSize=11;" vertex="1" parent="zNFJ4cj6PXObmbsLO68b-166">
          <mxGeometry x="497" width="113" height="39" as="geometry">
            <mxRectangle width="113" height="39" as="alternateBounds" />
          </mxGeometry>
        </mxCell>
        <mxCell id="zNFJ4cj6PXObmbsLO68b-173" value="Да" style="shape=partialRectangle;html=1;whiteSpace=wrap;connectable=0;strokeColor=inherit;overflow=hidden;fillColor=none;top=0;left=0;bottom=0;right=0;pointerEvents=1;fontSize=11;" vertex="1" parent="zNFJ4cj6PXObmbsLO68b-166">
          <mxGeometry x="610" width="133" height="39" as="geometry">
            <mxRectangle width="133" height="39" as="alternateBounds" />
          </mxGeometry>
        </mxCell>
        <mxCell id="zNFJ4cj6PXObmbsLO68b-174" style="shape=tableRow;horizontal=0;startSize=0;swimlaneHead=0;swimlaneBody=0;strokeColor=inherit;top=0;left=0;bottom=0;right=0;collapsible=0;dropTarget=0;fillColor=none;points=[[0,0.5],[1,0.5]];portConstraint=eastwest;fontSize=16;" vertex="1" parent="zNFJ4cj6PXObmbsLO68b-133">
          <mxGeometry y="249" width="743" height="40" as="geometry" />
        </mxCell>
        <mxCell id="zNFJ4cj6PXObmbsLO68b-175" style="shape=partialRectangle;html=1;whiteSpace=wrap;connectable=0;strokeColor=inherit;overflow=hidden;fillColor=none;top=0;left=0;bottom=0;right=0;pointerEvents=1;fontSize=11;" vertex="1" parent="zNFJ4cj6PXObmbsLO68b-174">
          <mxGeometry width="33" height="40" as="geometry">
            <mxRectangle width="33" height="40" as="alternateBounds" />
          </mxGeometry>
        </mxCell>
        <mxCell id="zNFJ4cj6PXObmbsLO68b-176" value="" style="shape=partialRectangle;html=1;whiteSpace=wrap;connectable=0;strokeColor=inherit;overflow=hidden;fillColor=none;top=0;left=0;bottom=0;right=0;pointerEvents=1;fontSize=11;" vertex="1" parent="zNFJ4cj6PXObmbsLO68b-174">
          <mxGeometry x="33" width="37" height="40" as="geometry">
            <mxRectangle width="37" height="40" as="alternateBounds" />
          </mxGeometry>
        </mxCell>
        <mxCell id="zNFJ4cj6PXObmbsLO68b-177" value="PosY" style="shape=partialRectangle;html=1;whiteSpace=wrap;connectable=0;strokeColor=inherit;overflow=hidden;fillColor=none;top=0;left=0;bottom=0;right=0;pointerEvents=1;fontSize=11;" vertex="1" parent="zNFJ4cj6PXObmbsLO68b-174">
          <mxGeometry x="70" width="223" height="40" as="geometry">
            <mxRectangle width="223" height="40" as="alternateBounds" />
          </mxGeometry>
        </mxCell>
        <mxCell id="zNFJ4cj6PXObmbsLO68b-178" value="&lt;span style=&quot;caret-color: rgb(0, 0, 0); color: rgb(0, 0, 0); font-family: Helvetica; font-size: 11px; font-style: normal; font-variant-caps: normal; font-weight: 400; letter-spacing: normal; orphans: auto; text-align: center; text-indent: 0px; text-transform: none; white-space: normal; widows: auto; word-spacing: 0px; -webkit-text-stroke-width: 0px; background-color: rgb(251, 251, 251); text-decoration: none; display: inline !important; float: none;&quot;&gt;Body&lt;/span&gt;" style="shape=partialRectangle;html=1;whiteSpace=wrap;connectable=0;strokeColor=inherit;overflow=hidden;fillColor=none;top=0;left=0;bottom=0;right=0;pointerEvents=1;fontSize=11;" vertex="1" parent="zNFJ4cj6PXObmbsLO68b-174">
          <mxGeometry x="293" width="105" height="40" as="geometry">
            <mxRectangle width="105" height="40" as="alternateBounds" />
          </mxGeometry>
        </mxCell>
        <mxCell id="zNFJ4cj6PXObmbsLO68b-179" value="Int" style="shape=partialRectangle;html=1;whiteSpace=wrap;connectable=0;strokeColor=inherit;overflow=hidden;fillColor=none;top=0;left=0;bottom=0;right=0;pointerEvents=1;fontSize=11;" vertex="1" parent="zNFJ4cj6PXObmbsLO68b-174">
          <mxGeometry x="398" width="99" height="40" as="geometry">
            <mxRectangle width="99" height="40" as="alternateBounds" />
          </mxGeometry>
        </mxCell>
        <mxCell id="zNFJ4cj6PXObmbsLO68b-180" value="Позиция Y" style="shape=partialRectangle;html=1;whiteSpace=wrap;connectable=0;strokeColor=inherit;overflow=hidden;fillColor=none;top=0;left=0;bottom=0;right=0;pointerEvents=1;fontSize=11;" vertex="1" parent="zNFJ4cj6PXObmbsLO68b-174">
          <mxGeometry x="497" width="113" height="40" as="geometry">
            <mxRectangle width="113" height="40" as="alternateBounds" />
          </mxGeometry>
        </mxCell>
        <mxCell id="zNFJ4cj6PXObmbsLO68b-181" value="Да" style="shape=partialRectangle;html=1;whiteSpace=wrap;connectable=0;strokeColor=inherit;overflow=hidden;fillColor=none;top=0;left=0;bottom=0;right=0;pointerEvents=1;fontSize=11;" vertex="1" parent="zNFJ4cj6PXObmbsLO68b-174">
          <mxGeometry x="610" width="133" height="40" as="geometry">
            <mxRectangle width="133" height="40" as="alternateBounds" />
          </mxGeometry>
        </mxCell>
        <mxCell id="zNFJ4cj6PXObmbsLO68b-182" style="shape=tableRow;horizontal=0;startSize=0;swimlaneHead=0;swimlaneBody=0;strokeColor=inherit;top=0;left=0;bottom=0;right=0;collapsible=0;dropTarget=0;fillColor=none;points=[[0,0.5],[1,0.5]];portConstraint=eastwest;fontSize=16;" vertex="1" parent="zNFJ4cj6PXObmbsLO68b-133">
          <mxGeometry y="289" width="743" height="40" as="geometry" />
        </mxCell>
        <mxCell id="zNFJ4cj6PXObmbsLO68b-183" style="shape=partialRectangle;html=1;whiteSpace=wrap;connectable=0;strokeColor=inherit;overflow=hidden;fillColor=none;top=0;left=0;bottom=0;right=0;pointerEvents=1;fontSize=11;" vertex="1" parent="zNFJ4cj6PXObmbsLO68b-182">
          <mxGeometry width="33" height="40" as="geometry">
            <mxRectangle width="33" height="40" as="alternateBounds" />
          </mxGeometry>
        </mxCell>
        <mxCell id="zNFJ4cj6PXObmbsLO68b-184" value="" style="shape=partialRectangle;html=1;whiteSpace=wrap;connectable=0;strokeColor=inherit;overflow=hidden;fillColor=none;top=0;left=0;bottom=0;right=0;pointerEvents=1;fontSize=11;" vertex="1" parent="zNFJ4cj6PXObmbsLO68b-182">
          <mxGeometry x="33" width="37" height="40" as="geometry">
            <mxRectangle width="37" height="40" as="alternateBounds" />
          </mxGeometry>
        </mxCell>
        <mxCell id="zNFJ4cj6PXObmbsLO68b-185" value="Width" style="shape=partialRectangle;html=1;whiteSpace=wrap;connectable=0;strokeColor=inherit;overflow=hidden;fillColor=none;top=0;left=0;bottom=0;right=0;pointerEvents=1;fontSize=11;" vertex="1" parent="zNFJ4cj6PXObmbsLO68b-182">
          <mxGeometry x="70" width="223" height="40" as="geometry">
            <mxRectangle width="223" height="40" as="alternateBounds" />
          </mxGeometry>
        </mxCell>
        <mxCell id="zNFJ4cj6PXObmbsLO68b-186" value="&lt;span style=&quot;caret-color: rgb(0, 0, 0); color: rgb(0, 0, 0); font-family: Helvetica; font-size: 11px; font-style: normal; font-variant-caps: normal; font-weight: 400; letter-spacing: normal; orphans: auto; text-align: center; text-indent: 0px; text-transform: none; white-space: normal; widows: auto; word-spacing: 0px; -webkit-text-stroke-width: 0px; background-color: rgb(251, 251, 251); text-decoration: none; display: inline !important; float: none;&quot;&gt;Body&lt;/span&gt;" style="shape=partialRectangle;html=1;whiteSpace=wrap;connectable=0;strokeColor=inherit;overflow=hidden;fillColor=none;top=0;left=0;bottom=0;right=0;pointerEvents=1;fontSize=11;" vertex="1" parent="zNFJ4cj6PXObmbsLO68b-182">
          <mxGeometry x="293" width="105" height="40" as="geometry">
            <mxRectangle width="105" height="40" as="alternateBounds" />
          </mxGeometry>
        </mxCell>
        <mxCell id="zNFJ4cj6PXObmbsLO68b-187" value="Int" style="shape=partialRectangle;html=1;whiteSpace=wrap;connectable=0;strokeColor=inherit;overflow=hidden;fillColor=none;top=0;left=0;bottom=0;right=0;pointerEvents=1;fontSize=11;" vertex="1" parent="zNFJ4cj6PXObmbsLO68b-182">
          <mxGeometry x="398" width="99" height="40" as="geometry">
            <mxRectangle width="99" height="40" as="alternateBounds" />
          </mxGeometry>
        </mxCell>
        <mxCell id="zNFJ4cj6PXObmbsLO68b-188" value="Ширина виджета" style="shape=partialRectangle;html=1;whiteSpace=wrap;connectable=0;strokeColor=inherit;overflow=hidden;fillColor=none;top=0;left=0;bottom=0;right=0;pointerEvents=1;fontSize=11;" vertex="1" parent="zNFJ4cj6PXObmbsLO68b-182">
          <mxGeometry x="497" width="113" height="40" as="geometry">
            <mxRectangle width="113" height="40" as="alternateBounds" />
          </mxGeometry>
        </mxCell>
        <mxCell id="zNFJ4cj6PXObmbsLO68b-189" value="Да" style="shape=partialRectangle;html=1;whiteSpace=wrap;connectable=0;strokeColor=inherit;overflow=hidden;fillColor=none;top=0;left=0;bottom=0;right=0;pointerEvents=1;fontSize=11;" vertex="1" parent="zNFJ4cj6PXObmbsLO68b-182">
          <mxGeometry x="610" width="133" height="40" as="geometry">
            <mxRectangle width="133" height="40" as="alternateBounds" />
          </mxGeometry>
        </mxCell>
        <mxCell id="zNFJ4cj6PXObmbsLO68b-190" style="shape=tableRow;horizontal=0;startSize=0;swimlaneHead=0;swimlaneBody=0;strokeColor=inherit;top=0;left=0;bottom=0;right=0;collapsible=0;dropTarget=0;fillColor=none;points=[[0,0.5],[1,0.5]];portConstraint=eastwest;fontSize=16;" vertex="1" parent="zNFJ4cj6PXObmbsLO68b-133">
          <mxGeometry y="329" width="743" height="40" as="geometry" />
        </mxCell>
        <mxCell id="zNFJ4cj6PXObmbsLO68b-191" style="shape=partialRectangle;html=1;whiteSpace=wrap;connectable=0;strokeColor=inherit;overflow=hidden;fillColor=none;top=0;left=0;bottom=0;right=0;pointerEvents=1;fontSize=11;" vertex="1" parent="zNFJ4cj6PXObmbsLO68b-190">
          <mxGeometry width="33" height="40" as="geometry">
            <mxRectangle width="33" height="40" as="alternateBounds" />
          </mxGeometry>
        </mxCell>
        <mxCell id="zNFJ4cj6PXObmbsLO68b-192" value="" style="shape=partialRectangle;html=1;whiteSpace=wrap;connectable=0;strokeColor=inherit;overflow=hidden;fillColor=none;top=0;left=0;bottom=0;right=0;pointerEvents=1;fontSize=11;" vertex="1" parent="zNFJ4cj6PXObmbsLO68b-190">
          <mxGeometry x="33" width="37" height="40" as="geometry">
            <mxRectangle width="37" height="40" as="alternateBounds" />
          </mxGeometry>
        </mxCell>
        <mxCell id="zNFJ4cj6PXObmbsLO68b-193" value="Height" style="shape=partialRectangle;html=1;whiteSpace=wrap;connectable=0;strokeColor=inherit;overflow=hidden;fillColor=none;top=0;left=0;bottom=0;right=0;pointerEvents=1;fontSize=11;" vertex="1" parent="zNFJ4cj6PXObmbsLO68b-190">
          <mxGeometry x="70" width="223" height="40" as="geometry">
            <mxRectangle width="223" height="40" as="alternateBounds" />
          </mxGeometry>
        </mxCell>
        <mxCell id="zNFJ4cj6PXObmbsLO68b-194" value="&lt;span style=&quot;caret-color: rgb(0, 0, 0); color: rgb(0, 0, 0); font-family: Helvetica; font-size: 11px; font-style: normal; font-variant-caps: normal; font-weight: 400; letter-spacing: normal; orphans: auto; text-align: center; text-indent: 0px; text-transform: none; white-space: normal; widows: auto; word-spacing: 0px; -webkit-text-stroke-width: 0px; background-color: rgb(251, 251, 251); text-decoration: none; display: inline !important; float: none;&quot;&gt;Body&lt;/span&gt;" style="shape=partialRectangle;html=1;whiteSpace=wrap;connectable=0;strokeColor=inherit;overflow=hidden;fillColor=none;top=0;left=0;bottom=0;right=0;pointerEvents=1;fontSize=11;" vertex="1" parent="zNFJ4cj6PXObmbsLO68b-190">
          <mxGeometry x="293" width="105" height="40" as="geometry">
            <mxRectangle width="105" height="40" as="alternateBounds" />
          </mxGeometry>
        </mxCell>
        <mxCell id="zNFJ4cj6PXObmbsLO68b-195" value="Int" style="shape=partialRectangle;html=1;whiteSpace=wrap;connectable=0;strokeColor=inherit;overflow=hidden;fillColor=none;top=0;left=0;bottom=0;right=0;pointerEvents=1;fontSize=11;" vertex="1" parent="zNFJ4cj6PXObmbsLO68b-190">
          <mxGeometry x="398" width="99" height="40" as="geometry">
            <mxRectangle width="99" height="40" as="alternateBounds" />
          </mxGeometry>
        </mxCell>
        <mxCell id="zNFJ4cj6PXObmbsLO68b-196" value="Высота виджета" style="shape=partialRectangle;html=1;whiteSpace=wrap;connectable=0;strokeColor=inherit;overflow=hidden;fillColor=none;top=0;left=0;bottom=0;right=0;pointerEvents=1;fontSize=11;" vertex="1" parent="zNFJ4cj6PXObmbsLO68b-190">
          <mxGeometry x="497" width="113" height="40" as="geometry">
            <mxRectangle width="113" height="40" as="alternateBounds" />
          </mxGeometry>
        </mxCell>
        <mxCell id="zNFJ4cj6PXObmbsLO68b-197" value="Да" style="shape=partialRectangle;html=1;whiteSpace=wrap;connectable=0;strokeColor=inherit;overflow=hidden;fillColor=none;top=0;left=0;bottom=0;right=0;pointerEvents=1;fontSize=11;" vertex="1" parent="zNFJ4cj6PXObmbsLO68b-190">
          <mxGeometry x="610" width="133" height="40" as="geometry">
            <mxRectangle width="133" height="40" as="alternateBounds" />
          </mxGeometry>
        </mxCell>
        <mxCell id="zNFJ4cj6PXObmbsLO68b-198" style="shape=tableRow;horizontal=0;startSize=0;swimlaneHead=0;swimlaneBody=0;strokeColor=inherit;top=0;left=0;bottom=0;right=0;collapsible=0;dropTarget=0;fillColor=none;points=[[0,0.5],[1,0.5]];portConstraint=eastwest;fontSize=16;" vertex="1" parent="zNFJ4cj6PXObmbsLO68b-133">
          <mxGeometry y="369" width="743" height="40" as="geometry" />
        </mxCell>
        <mxCell id="zNFJ4cj6PXObmbsLO68b-199" style="shape=partialRectangle;html=1;whiteSpace=wrap;connectable=0;strokeColor=inherit;overflow=hidden;fillColor=none;top=0;left=0;bottom=0;right=0;pointerEvents=1;fontSize=11;" vertex="1" parent="zNFJ4cj6PXObmbsLO68b-198">
          <mxGeometry width="33" height="40" as="geometry">
            <mxRectangle width="33" height="40" as="alternateBounds" />
          </mxGeometry>
        </mxCell>
        <mxCell id="zNFJ4cj6PXObmbsLO68b-200" value="" style="shape=partialRectangle;html=1;whiteSpace=wrap;connectable=0;strokeColor=inherit;overflow=hidden;fillColor=none;top=0;left=0;bottom=0;right=0;pointerEvents=1;fontSize=11;" vertex="1" parent="zNFJ4cj6PXObmbsLO68b-198">
          <mxGeometry x="33" width="37" height="40" as="geometry">
            <mxRectangle width="37" height="40" as="alternateBounds" />
          </mxGeometry>
        </mxCell>
        <mxCell id="zNFJ4cj6PXObmbsLO68b-201" value="ColorScheme" style="shape=partialRectangle;html=1;whiteSpace=wrap;connectable=0;strokeColor=inherit;overflow=hidden;fillColor=none;top=0;left=0;bottom=0;right=0;pointerEvents=1;fontSize=11;" vertex="1" parent="zNFJ4cj6PXObmbsLO68b-198">
          <mxGeometry x="70" width="223" height="40" as="geometry">
            <mxRectangle width="223" height="40" as="alternateBounds" />
          </mxGeometry>
        </mxCell>
        <mxCell id="zNFJ4cj6PXObmbsLO68b-202" value="&lt;span style=&quot;caret-color: rgb(0, 0, 0); color: rgb(0, 0, 0); font-family: Helvetica; font-size: 11px; font-style: normal; font-variant-caps: normal; font-weight: 400; letter-spacing: normal; orphans: auto; text-align: center; text-indent: 0px; text-transform: none; white-space: normal; widows: auto; word-spacing: 0px; -webkit-text-stroke-width: 0px; background-color: rgb(251, 251, 251); text-decoration: none; display: inline !important; float: none;&quot;&gt;Body&lt;/span&gt;" style="shape=partialRectangle;html=1;whiteSpace=wrap;connectable=0;strokeColor=inherit;overflow=hidden;fillColor=none;top=0;left=0;bottom=0;right=0;pointerEvents=1;fontSize=11;" vertex="1" parent="zNFJ4cj6PXObmbsLO68b-198">
          <mxGeometry x="293" width="105" height="40" as="geometry">
            <mxRectangle width="105" height="40" as="alternateBounds" />
          </mxGeometry>
        </mxCell>
        <mxCell id="zNFJ4cj6PXObmbsLO68b-203" value="String" style="shape=partialRectangle;html=1;whiteSpace=wrap;connectable=0;strokeColor=inherit;overflow=hidden;fillColor=none;top=0;left=0;bottom=0;right=0;pointerEvents=1;fontSize=11;" vertex="1" parent="zNFJ4cj6PXObmbsLO68b-198">
          <mxGeometry x="398" width="99" height="40" as="geometry">
            <mxRectangle width="99" height="40" as="alternateBounds" />
          </mxGeometry>
        </mxCell>
        <mxCell id="zNFJ4cj6PXObmbsLO68b-204" value="Цветовая схема" style="shape=partialRectangle;html=1;whiteSpace=wrap;connectable=0;strokeColor=inherit;overflow=hidden;fillColor=none;top=0;left=0;bottom=0;right=0;pointerEvents=1;fontSize=11;" vertex="1" parent="zNFJ4cj6PXObmbsLO68b-198">
          <mxGeometry x="497" width="113" height="40" as="geometry">
            <mxRectangle width="113" height="40" as="alternateBounds" />
          </mxGeometry>
        </mxCell>
        <mxCell id="zNFJ4cj6PXObmbsLO68b-205" value="Нет" style="shape=partialRectangle;html=1;whiteSpace=wrap;connectable=0;strokeColor=inherit;overflow=hidden;fillColor=none;top=0;left=0;bottom=0;right=0;pointerEvents=1;fontSize=11;" vertex="1" parent="zNFJ4cj6PXObmbsLO68b-198">
          <mxGeometry x="610" width="133" height="40" as="geometry">
            <mxRectangle width="133" height="40" as="alternateBounds" />
          </mxGeometry>
        </mxCell>
        <mxCell id="zNFJ4cj6PXObmbsLO68b-206" style="shape=tableRow;horizontal=0;startSize=0;swimlaneHead=0;swimlaneBody=0;strokeColor=inherit;top=0;left=0;bottom=0;right=0;collapsible=0;dropTarget=0;fillColor=none;points=[[0,0.5],[1,0.5]];portConstraint=eastwest;fontSize=16;" vertex="1" parent="zNFJ4cj6PXObmbsLO68b-133">
          <mxGeometry y="409" width="743" height="40" as="geometry" />
        </mxCell>
        <mxCell id="zNFJ4cj6PXObmbsLO68b-207" style="shape=partialRectangle;html=1;whiteSpace=wrap;connectable=0;strokeColor=inherit;overflow=hidden;fillColor=none;top=0;left=0;bottom=0;right=0;pointerEvents=1;fontSize=11;" vertex="1" parent="zNFJ4cj6PXObmbsLO68b-206">
          <mxGeometry width="33" height="40" as="geometry">
            <mxRectangle width="33" height="40" as="alternateBounds" />
          </mxGeometry>
        </mxCell>
        <mxCell id="zNFJ4cj6PXObmbsLO68b-208" value="" style="shape=partialRectangle;html=1;whiteSpace=wrap;connectable=0;strokeColor=inherit;overflow=hidden;fillColor=none;top=0;left=0;bottom=0;right=0;pointerEvents=1;fontSize=11;" vertex="1" parent="zNFJ4cj6PXObmbsLO68b-206">
          <mxGeometry x="33" width="37" height="40" as="geometry">
            <mxRectangle width="37" height="40" as="alternateBounds" />
          </mxGeometry>
        </mxCell>
        <mxCell id="zNFJ4cj6PXObmbsLO68b-209" value="WidgetSize" style="shape=partialRectangle;html=1;whiteSpace=wrap;connectable=0;strokeColor=inherit;overflow=hidden;fillColor=none;top=0;left=0;bottom=0;right=0;pointerEvents=1;fontSize=11;" vertex="1" parent="zNFJ4cj6PXObmbsLO68b-206">
          <mxGeometry x="70" width="223" height="40" as="geometry">
            <mxRectangle width="223" height="40" as="alternateBounds" />
          </mxGeometry>
        </mxCell>
        <mxCell id="zNFJ4cj6PXObmbsLO68b-210" value="&lt;span style=&quot;caret-color: rgb(0, 0, 0); color: rgb(0, 0, 0); font-family: Helvetica; font-size: 11px; font-style: normal; font-variant-caps: normal; font-weight: 400; letter-spacing: normal; orphans: auto; text-align: center; text-indent: 0px; text-transform: none; white-space: normal; widows: auto; word-spacing: 0px; -webkit-text-stroke-width: 0px; background-color: rgb(251, 251, 251); text-decoration: none; display: inline !important; float: none;&quot;&gt;Body&lt;/span&gt;" style="shape=partialRectangle;html=1;whiteSpace=wrap;connectable=0;strokeColor=inherit;overflow=hidden;fillColor=none;top=0;left=0;bottom=0;right=0;pointerEvents=1;fontSize=11;" vertex="1" parent="zNFJ4cj6PXObmbsLO68b-206">
          <mxGeometry x="293" width="105" height="40" as="geometry">
            <mxRectangle width="105" height="40" as="alternateBounds" />
          </mxGeometry>
        </mxCell>
        <mxCell id="zNFJ4cj6PXObmbsLO68b-211" value="String" style="shape=partialRectangle;html=1;whiteSpace=wrap;connectable=0;strokeColor=inherit;overflow=hidden;fillColor=none;top=0;left=0;bottom=0;right=0;pointerEvents=1;fontSize=11;" vertex="1" parent="zNFJ4cj6PXObmbsLO68b-206">
          <mxGeometry x="398" width="99" height="40" as="geometry">
            <mxRectangle width="99" height="40" as="alternateBounds" />
          </mxGeometry>
        </mxCell>
        <mxCell id="zNFJ4cj6PXObmbsLO68b-212" value="Размерность виджета" style="shape=partialRectangle;html=1;whiteSpace=wrap;connectable=0;strokeColor=inherit;overflow=hidden;fillColor=none;top=0;left=0;bottom=0;right=0;pointerEvents=1;fontSize=11;" vertex="1" parent="zNFJ4cj6PXObmbsLO68b-206">
          <mxGeometry x="497" width="113" height="40" as="geometry">
            <mxRectangle width="113" height="40" as="alternateBounds" />
          </mxGeometry>
        </mxCell>
        <mxCell id="zNFJ4cj6PXObmbsLO68b-213" value="Да" style="shape=partialRectangle;html=1;whiteSpace=wrap;connectable=0;strokeColor=inherit;overflow=hidden;fillColor=none;top=0;left=0;bottom=0;right=0;pointerEvents=1;fontSize=11;" vertex="1" parent="zNFJ4cj6PXObmbsLO68b-206">
          <mxGeometry x="610" width="133" height="40" as="geometry">
            <mxRectangle width="133" height="40" as="alternateBounds" />
          </mxGeometry>
        </mxCell>
        <mxCell id="zNFJ4cj6PXObmbsLO68b-214" value="Response" style="shape=table;startSize=30;container=1;collapsible=0;childLayout=tableLayout;strokeColor=default;fontSize=13;" vertex="1" parent="1">
          <mxGeometry x="37" y="1550" width="743" height="190" as="geometry" />
        </mxCell>
        <mxCell id="zNFJ4cj6PXObmbsLO68b-215" style="shape=tableRow;horizontal=0;startSize=0;swimlaneHead=0;swimlaneBody=0;strokeColor=inherit;top=0;left=0;bottom=0;right=0;collapsible=0;dropTarget=0;fillColor=none;points=[[0,0.5],[1,0.5]];portConstraint=eastwest;fontSize=16;" vertex="1" parent="zNFJ4cj6PXObmbsLO68b-214">
          <mxGeometry y="30" width="743" height="43" as="geometry" />
        </mxCell>
        <mxCell id="zNFJ4cj6PXObmbsLO68b-216" value="Название параметра" style="shape=partialRectangle;html=1;whiteSpace=wrap;connectable=0;strokeColor=inherit;overflow=hidden;fillColor=none;top=0;left=0;bottom=0;right=0;pointerEvents=1;fontSize=11;" vertex="1" parent="zNFJ4cj6PXObmbsLO68b-215">
          <mxGeometry width="145" height="43" as="geometry">
            <mxRectangle width="145" height="43" as="alternateBounds" />
          </mxGeometry>
        </mxCell>
        <mxCell id="zNFJ4cj6PXObmbsLO68b-217" value="Тип параметра" style="shape=partialRectangle;html=1;whiteSpace=wrap;connectable=0;strokeColor=inherit;overflow=hidden;fillColor=none;top=0;left=0;bottom=0;right=0;pointerEvents=1;fontSize=11;" vertex="1" parent="zNFJ4cj6PXObmbsLO68b-215">
          <mxGeometry x="145" width="144" height="43" as="geometry">
            <mxRectangle width="144" height="43" as="alternateBounds" />
          </mxGeometry>
        </mxCell>
        <mxCell id="zNFJ4cj6PXObmbsLO68b-218" value="Тип данных" style="shape=partialRectangle;html=1;whiteSpace=wrap;connectable=0;strokeColor=inherit;overflow=hidden;fillColor=none;top=0;left=0;bottom=0;right=0;pointerEvents=1;fontSize=11;" vertex="1" parent="zNFJ4cj6PXObmbsLO68b-215">
          <mxGeometry x="289" width="145" height="43" as="geometry">
            <mxRectangle width="145" height="43" as="alternateBounds" />
          </mxGeometry>
        </mxCell>
        <mxCell id="zNFJ4cj6PXObmbsLO68b-219" value="Описание&amp;nbsp;" style="shape=partialRectangle;html=1;whiteSpace=wrap;connectable=0;strokeColor=inherit;overflow=hidden;fillColor=none;top=0;left=0;bottom=0;right=0;pointerEvents=1;fontSize=11;" vertex="1" parent="zNFJ4cj6PXObmbsLO68b-215">
          <mxGeometry x="434" width="144" height="43" as="geometry">
            <mxRectangle width="144" height="43" as="alternateBounds" />
          </mxGeometry>
        </mxCell>
        <mxCell id="zNFJ4cj6PXObmbsLO68b-220" value="Обязательность параметра" style="shape=partialRectangle;html=1;whiteSpace=wrap;connectable=0;strokeColor=inherit;overflow=hidden;fillColor=none;top=0;left=0;bottom=0;right=0;pointerEvents=1;fontSize=11;" vertex="1" parent="zNFJ4cj6PXObmbsLO68b-215">
          <mxGeometry x="578" width="165" height="43" as="geometry">
            <mxRectangle width="165" height="43" as="alternateBounds" />
          </mxGeometry>
        </mxCell>
        <mxCell id="zNFJ4cj6PXObmbsLO68b-221" value="" style="shape=tableRow;horizontal=0;startSize=0;swimlaneHead=0;swimlaneBody=0;strokeColor=inherit;top=0;left=0;bottom=0;right=0;collapsible=0;dropTarget=0;fillColor=none;points=[[0,0.5],[1,0.5]];portConstraint=eastwest;fontSize=16;" vertex="1" parent="zNFJ4cj6PXObmbsLO68b-214">
          <mxGeometry y="73" width="743" height="57" as="geometry" />
        </mxCell>
        <mxCell id="zNFJ4cj6PXObmbsLO68b-222" value="settingId" style="shape=partialRectangle;html=1;whiteSpace=wrap;connectable=0;strokeColor=inherit;overflow=hidden;fillColor=none;top=0;left=0;bottom=0;right=0;pointerEvents=1;fontSize=11;" vertex="1" parent="zNFJ4cj6PXObmbsLO68b-221">
          <mxGeometry width="145" height="57" as="geometry">
            <mxRectangle width="145" height="57" as="alternateBounds" />
          </mxGeometry>
        </mxCell>
        <mxCell id="zNFJ4cj6PXObmbsLO68b-223" value="Body" style="shape=partialRectangle;html=1;whiteSpace=wrap;connectable=0;strokeColor=inherit;overflow=hidden;fillColor=none;top=0;left=0;bottom=0;right=0;pointerEvents=1;fontSize=11;" vertex="1" parent="zNFJ4cj6PXObmbsLO68b-221">
          <mxGeometry x="145" width="144" height="57" as="geometry">
            <mxRectangle width="144" height="57" as="alternateBounds" />
          </mxGeometry>
        </mxCell>
        <mxCell id="zNFJ4cj6PXObmbsLO68b-224" value="int" style="shape=partialRectangle;html=1;whiteSpace=wrap;connectable=0;strokeColor=inherit;overflow=hidden;fillColor=none;top=0;left=0;bottom=0;right=0;pointerEvents=1;fontSize=11;" vertex="1" parent="zNFJ4cj6PXObmbsLO68b-221">
          <mxGeometry x="289" width="145" height="57" as="geometry">
            <mxRectangle width="145" height="57" as="alternateBounds" />
          </mxGeometry>
        </mxCell>
        <mxCell id="zNFJ4cj6PXObmbsLO68b-225" value="id носозданной связи&lt;div&gt;виджет-пользователь и выбранных пользователем настроек виджета&lt;/div&gt;" style="shape=partialRectangle;html=1;whiteSpace=wrap;connectable=0;strokeColor=inherit;overflow=hidden;fillColor=none;top=0;left=0;bottom=0;right=0;pointerEvents=1;fontSize=11;" vertex="1" parent="zNFJ4cj6PXObmbsLO68b-221">
          <mxGeometry x="434" width="144" height="57" as="geometry">
            <mxRectangle width="144" height="57" as="alternateBounds" />
          </mxGeometry>
        </mxCell>
        <mxCell id="zNFJ4cj6PXObmbsLO68b-226" value="Да" style="shape=partialRectangle;html=1;whiteSpace=wrap;connectable=0;strokeColor=inherit;overflow=hidden;fillColor=none;top=0;left=0;bottom=0;right=0;pointerEvents=1;fontSize=11;" vertex="1" parent="zNFJ4cj6PXObmbsLO68b-221">
          <mxGeometry x="578" width="165" height="57" as="geometry">
            <mxRectangle width="165" height="57" as="alternateBounds" />
          </mxGeometry>
        </mxCell>
        <mxCell id="zNFJ4cj6PXObmbsLO68b-227" style="shape=tableRow;horizontal=0;startSize=0;swimlaneHead=0;swimlaneBody=0;strokeColor=inherit;top=0;left=0;bottom=0;right=0;collapsible=0;dropTarget=0;fillColor=none;points=[[0,0.5],[1,0.5]];portConstraint=eastwest;fontSize=16;" vertex="1" parent="zNFJ4cj6PXObmbsLO68b-214">
          <mxGeometry y="130" width="743" height="60" as="geometry" />
        </mxCell>
        <mxCell id="zNFJ4cj6PXObmbsLO68b-228" value="message" style="shape=partialRectangle;html=1;whiteSpace=wrap;connectable=0;strokeColor=inherit;overflow=hidden;fillColor=none;top=0;left=0;bottom=0;right=0;pointerEvents=1;fontSize=11;" vertex="1" parent="zNFJ4cj6PXObmbsLO68b-227">
          <mxGeometry width="145" height="60" as="geometry">
            <mxRectangle width="145" height="60" as="alternateBounds" />
          </mxGeometry>
        </mxCell>
        <mxCell id="zNFJ4cj6PXObmbsLO68b-229" value="Body" style="shape=partialRectangle;html=1;whiteSpace=wrap;connectable=0;strokeColor=inherit;overflow=hidden;fillColor=none;top=0;left=0;bottom=0;right=0;pointerEvents=1;fontSize=11;" vertex="1" parent="zNFJ4cj6PXObmbsLO68b-227">
          <mxGeometry x="145" width="144" height="60" as="geometry">
            <mxRectangle width="144" height="60" as="alternateBounds" />
          </mxGeometry>
        </mxCell>
        <mxCell id="zNFJ4cj6PXObmbsLO68b-230" value="string" style="shape=partialRectangle;html=1;whiteSpace=wrap;connectable=0;strokeColor=inherit;overflow=hidden;fillColor=none;top=0;left=0;bottom=0;right=0;pointerEvents=1;fontSize=11;" vertex="1" parent="zNFJ4cj6PXObmbsLO68b-227">
          <mxGeometry x="289" width="145" height="60" as="geometry">
            <mxRectangle width="145" height="60" as="alternateBounds" />
          </mxGeometry>
        </mxCell>
        <mxCell id="zNFJ4cj6PXObmbsLO68b-231" value="Сообщение об успешной операции добавления виджета" style="shape=partialRectangle;html=1;whiteSpace=wrap;connectable=0;strokeColor=inherit;overflow=hidden;fillColor=none;top=0;left=0;bottom=0;right=0;pointerEvents=1;fontSize=11;" vertex="1" parent="zNFJ4cj6PXObmbsLO68b-227">
          <mxGeometry x="434" width="144" height="60" as="geometry">
            <mxRectangle width="144" height="60" as="alternateBounds" />
          </mxGeometry>
        </mxCell>
        <mxCell id="zNFJ4cj6PXObmbsLO68b-232" value="да" style="shape=partialRectangle;html=1;whiteSpace=wrap;connectable=0;strokeColor=inherit;overflow=hidden;fillColor=none;top=0;left=0;bottom=0;right=0;pointerEvents=1;fontSize=11;" vertex="1" parent="zNFJ4cj6PXObmbsLO68b-227">
          <mxGeometry x="578" width="165" height="60" as="geometry">
            <mxRectangle width="165" height="60" as="alternateBounds" />
          </mxGeometry>
        </mxCell>
        <mxCell id="zNFJ4cj6PXObmbsLO68b-233" value="&lt;b&gt;Code 200 - Сервер возвращает сообщение об успешном добавлении виджета на экран пользователя&lt;/b&gt;" style="text;html=1;align=left;verticalAlign=middle;whiteSpace=wrap;rounded=0;" vertex="1" parent="1">
          <mxGeometry x="37" y="1510" width="650" height="30" as="geometry" />
        </mxCell>
        <mxCell id="zNFJ4cj6PXObmbsLO68b-234" value="Пользователь идентифицируется по токену в header&#39;e" style="text;html=1;align=center;verticalAlign=middle;whiteSpace=wrap;rounded=0;fontSize=17;fontStyle=1" vertex="1" parent="1">
          <mxGeometry x="37" y="60" width="473" height="40" as="geometry" />
        </mxCell>
        <mxCell id="zNFJ4cj6PXObmbsLO68b-235" style="shape=partialRectangle;html=1;whiteSpace=wrap;connectable=0;strokeColor=inherit;overflow=hidden;fillColor=none;top=0;left=0;bottom=0;right=0;pointerEvents=1;fontSize=11;" vertex="1" parent="1">
          <mxGeometry x="37" y="860" width="40" height="58" as="geometry">
            <mxRectangle width="40" height="58" as="alternateBounds" />
          </mxGeometry>
        </mxCell>
        <mxCell id="zNFJ4cj6PXObmbsLO68b-236" style="shape=partialRectangle;html=1;whiteSpace=wrap;connectable=0;strokeColor=inherit;overflow=hidden;fillColor=none;top=0;left=0;bottom=0;right=0;pointerEvents=1;fontSize=11;" vertex="1" parent="1">
          <mxGeometry x="77" y="860" width="40" height="58" as="geometry">
            <mxRectangle width="40" height="58" as="alternateBounds" />
          </mxGeometry>
        </mxCell>
        <mxCell id="zNFJ4cj6PXObmbsLO68b-237" style="shape=partialRectangle;html=1;whiteSpace=wrap;connectable=0;strokeColor=inherit;overflow=hidden;fillColor=none;top=0;left=0;bottom=0;right=0;pointerEvents=1;fontSize=11;" vertex="1" parent="1">
          <mxGeometry x="117" y="860" width="43" height="58" as="geometry">
            <mxRectangle width="43" height="58" as="alternateBounds" />
          </mxGeometry>
        </mxCell>
        <mxCell id="zNFJ4cj6PXObmbsLO68b-238" value="colorScheme" style="shape=partialRectangle;html=1;whiteSpace=wrap;connectable=1;strokeColor=inherit;overflow=hidden;fillColor=none;top=0;left=0;bottom=0;right=0;pointerEvents=1;fontSize=11;container=1;movable=1;resizable=1;rotatable=1;deletable=1;editable=1;locked=0;" vertex="1" parent="1">
          <mxGeometry x="160" y="860" width="215" height="58" as="geometry">
            <mxRectangle width="215" height="58" as="alternateBounds" />
          </mxGeometry>
        </mxCell>
        <mxCell id="zNFJ4cj6PXObmbsLO68b-239" value="&lt;span style=&quot;caret-color: rgb(0, 0, 0); color: rgb(0, 0, 0); font-family: Helvetica; font-size: 11px; font-style: normal; font-variant-caps: normal; font-weight: 400; letter-spacing: normal; orphans: auto; text-align: center; text-indent: 0px; text-transform: none; white-space: normal; widows: auto; word-spacing: 0px; -webkit-text-stroke-width: 0px; background-color: rgb(251, 251, 251); text-decoration: none; display: inline !important; float: none;&quot;&gt;Body&lt;/span&gt;" style="shape=partialRectangle;html=1;whiteSpace=wrap;connectable=0;strokeColor=inherit;overflow=hidden;fillColor=none;top=0;left=0;bottom=0;right=0;pointerEvents=1;fontSize=11;" vertex="1" parent="1">
          <mxGeometry x="375" y="860" width="95" height="58" as="geometry">
            <mxRectangle width="95" height="58" as="alternateBounds" />
          </mxGeometry>
        </mxCell>
        <mxCell id="zNFJ4cj6PXObmbsLO68b-240" value="srting" style="shape=partialRectangle;html=1;whiteSpace=wrap;connectable=0;strokeColor=inherit;overflow=hidden;fillColor=none;top=0;left=0;bottom=0;right=0;pointerEvents=1;fontSize=11;" vertex="1" parent="1">
          <mxGeometry x="470" y="860" width="100" height="58" as="geometry">
            <mxRectangle width="100" height="58" as="alternateBounds" />
          </mxGeometry>
        </mxCell>
        <mxCell id="zNFJ4cj6PXObmbsLO68b-241" value="&lt;span style=&quot;caret-color: rgb(0, 0, 0); color: rgb(0, 0, 0); font-family: Helvetica; font-size: 11px; font-style: normal; font-variant-caps: normal; font-weight: 400; letter-spacing: normal; orphans: auto; text-align: center; text-indent: 0px; text-transform: none; white-space: normal; widows: auto; word-spacing: 0px; -webkit-text-stroke-width: 0px; background-color: rgb(251, 251, 251); text-decoration: none; display: inline !important; float: none;&quot;&gt;Цветовая схема&lt;/span&gt;" style="shape=partialRectangle;html=1;whiteSpace=wrap;connectable=0;strokeColor=inherit;overflow=hidden;fillColor=none;top=0;left=0;bottom=0;right=0;pointerEvents=1;fontSize=11;" vertex="1" parent="1">
          <mxGeometry x="570" y="860" width="113" height="58" as="geometry">
            <mxRectangle width="113" height="58" as="alternateBounds" />
          </mxGeometry>
        </mxCell>
        <mxCell id="zNFJ4cj6PXObmbsLO68b-242" value="да" style="shape=partialRectangle;html=1;whiteSpace=wrap;connectable=0;strokeColor=inherit;overflow=hidden;fillColor=none;top=0;left=0;bottom=0;right=0;pointerEvents=1;fontSize=11;" vertex="1" parent="1">
          <mxGeometry x="683" y="860" width="93" height="58" as="geometry">
            <mxRectangle width="93" height="58" as="alternateBounds" />
          </mxGeometry>
        </mxCell>
      </root>
    </mxGraphModel>
  </diagram>
</mxfile>
